<svg xmlns="http://www.w3.org/2000/svg" version="1.1" xmlns:xlink="http://www.w3.org/1999/xlink" xmlns:svgjs="http://svgjs.dev/svgjs" viewBox="0 0 1422 800" opacity="0.18"><g stroke-width="2" stroke="#ff571f" fill="none" stroke-linecap="round"><path d="M696.39 -450.49Q710.25 -445.45 724.54 -440.82 739.2 -436.33 754.18 -431.72 769.41 -426.75 784.81 -421.24 800.3 -415.11 815.77 -408.33 831.14 -400.98 846.31 -393.19 861.19 -385.12 875.67 -376.98 889.68 -368.94 903.13 -361.16 915.96 -353.75 928.12 -346.74 939.57 -340.12 950.28 -333.83 960.24 -327.77 969.48 -321.81 978.01 -315.84 985.89 -309.74 993.19 -303.45 999.98 -296.94 1006.35 -290.22 1012.43 -283.34 1018.33 -276.38 1024.18 -269.43 1030.1 -262.57 1036.24 -255.86 1042.73 -249.31 1049.7 -242.94 1057.27 -236.67 1065.55 -230.44 1074.63 -224.14 1084.61 -217.67 1095.54 -210.96 1107.46 -203.95 1120.39 -196.63 1134.33 -189.05 1149.26 -181.3 1165.11 -173.51 1181.81 -165.83 1199.28 -158.43 1217.39 -151.43 1236.01 -144.93 1254.99 -138.96 1274.18 -133.48 1293.39 -128.38 1312.46 -123.5 1331.21 -118.62 1349.48 -113.5 1367.09 -107.94 1383.9 -101.74 1399.78 -94.78 1414.59 -87.06 1428.24 -78.63 1440.67 -69.67 1451.83 -60.4 1461.69 -51.14 1470.28 -42.2 1477.64 -33.87 1483.83 -26.4 1488.95 -19.91 1472.94 -6.05 1455.18 7.8 1437.23 21.66 1420.67 35.53 1406.94 49.39 1397.26 63.25 1392.47 77.12 1393.01 90.98 1398.81 104.84 1409.37 118.7 1423.77 132.57 1440.73 146.43 1458.77 160.29 1476.3 174.16 1491.79 188.02 1503.87 201.88 1511.47 215.75 1513.95 229.61 1511.06 243.47 1503.08 257.33 1490.69 271.2 1475 285.06 1457.37 298.92 1439.36 312.79 1422.54 326.65 1408.4 340.51 1398.18 354.38 1392.77 368.24 1392.66 382.1 1397.84 395.96 1407.87 409.83 1421.87 423.69 1438.59 437.55 1456.59 451.42 1474.27 465.28 1490.08 479.14 1502.63 493.01 1510.82 506.87 1513.93 520.73 1511.69 534.6 1504.29 548.46 1492.39 562.32 1477.02 576.19 1459.54 590.05 1441.49 603.91 1424.45 617.78 1409.92 631.64 1399.17 645.5 1393.15 659.37 1392.39 673.23 1396.95 687.09 1406.43 700.96 1420.01 714.82 1436.48 728.68 1454.41 742.55 1472.21 756.41 1488.32 770.27 1501.33 784.14 1510.09 798 1513.84 811.86 1512.24 825.73 1505.44 839.59 1494.02 853.45 1479.01 867.32 1458.78 876.39 1438.34 880.7 1417.9 880.47 1397.64 876.45 1377.76 869.83 1358.43 862.13 1339.81 855 1322.05 850.05 1305.27 848.66 1289.56 851.81 1274.98 859.96 1261.59 873 1249.4 890.25 1238.38 910.53 1228.51 932.31 1219.71 953.85 1211.91 973.43 1204.98 989.53 1186.15 1001.21 1174.16 988.74 1164.01 973.87 1152.52 968.68 1145.69 974.63 1138.09 986.11 1129.64 1002.64 1120.3 1023.12 1110.05 1045.99 1098.88 1069.4 1086.81 1091.43 1073.87 1110.29 1060.13 1124.53 1045.64 1133.23 1030.52 1136.1 1014.84 1133.54 998.73 1126.55 982.3 1116.68 965.67 1105.82 948.96 1095.99 932.3 1089.12 915.8 1086.8 899.56 1090.12 883.68 1099.53 868.25 1114.77 853.34 1134.91 839.01 1158.43 825.29 1183.42 812.22 1207.77 799.81 1229.44 788.04 1246.66 776.89 1258.18 766.33 1263.38 756.31 1262.39 746.76 1256.02 737.62 1245.76 728.82 1233.52 720.25 1221.47 711.86 1211.8 703.54 1206.41 689.25 1193.85 675.34 1187.79 661.85 1188.1 648.81 1193.92 636.22 1203.77 624.09 1215.71 612.4 1227.59 601.12 1237.27 590.23 1242.9 579.69 1243.1 569.43 1237.13 559.42 1224.97 549.58 1207.29 539.86 1185.4 530.2 1161.1 520.54 1136.42 510.82 1113.43 501 1093.98 491.03 1079.51 480.87 1070.85 470.49 1068.17 459.88 1070.97 449.02 1078.09 437.91 1087.91 426.56 1098.52 414.97 1107.91 403.19 1114.26 391.22 1116.09 379.11 1112.49 366.9 1103.14 354.62 1088.41 342.32 1069.28 330.04 1047.21 317.81 1024 305.67 1001.56 293.66 981.68 281.8 965.84 270.11 955.06 258.6 949.75 247.27 949.69 236.12 954.07 225.14 961.57 214.31 970.53 203.6 979.14 192.97 985.65 182.4 988.57 171.83 986.83 161.22 979.92 150.54 967.93 139.72 951.5 128.73 931.82 117.52 910.4 106.07 888.96 94.34 869.17 82.31 852.54 69.97 840.15 57.32 832.61 44.36 829.97 31.11 831.7 17.6 836.78 3.86 843.83 -10.06 851.24 -24.11 857.4 -38.23 860.85 -42.41 847.07 -45.58 833.28 -47.47 819.5 -47.92 805.71 -46.88 791.93 -44.44 778.14 -40.82 764.36 -36.34 750.58 -31.39 736.79 -26.4 723.01 -21.82 709.22 -18.04 695.44 -15.41 681.65 -14.14 667.87 -14.35 654.09 -16.02 640.3 -19.01 626.52 -23.06 612.73 -27.8 598.95 -32.82 585.16 -37.68 571.38 -41.95 557.6 -45.26 543.81 -47.32 530.03 -47.94 516.24 -47.08 502.46 -44.8 488.67 -41.31 474.89 -36.91 461.11 -31.99 447.32 -26.99 433.54 -22.34 419.75 -18.44 405.97 -15.65 392.19 -14.21 378.4 -14.24 364.62 -15.75 350.83 -18.59 337.05 -22.52 323.27 -27.2 309.48 -32.21 295.7 -37.12 281.91 -41.48 268.13 -44.93 254.35 -47.15 240.56 -47.95 226.78 -47.26 212.99 -45.14 199.21 -41.79 185.43 -37.48 171.64 -32.6 157.86 -27.58 144.07 -22.86 130.29 -18.86 116.51 -15.92 102.72 -14.31 88.94 -14.16 75.16 -15.49 61.37 -18.18 47.59 -22 33.8 -26.61 20.02 -31.6 6.24 -36.54 -7.54 -41 -21.32 -30.89 -30.39 -20.41 -39.85 -9.54 -49.37 1.7 -58.62 13.32 -67.33 25.27 -75.28 37.52 -82.38 50.03 -88.65 62.76 -94.19 75.65 -99.17 88.65 -103.85 101.71 -108.48 114.78 -113.3 127.8 -118.52 140.74 -124.27 153.55 -130.63 166.2 -137.58 178.67 -145.02 190.94 -152.83 203.01 -160.82 214.86 -168.82 226.51 -176.67 237.98 -184.24 249.29 -191.46 260.46 -198.31 271.53 -204.81 282.54 -211.06 293.53 -217.16 304.53 -223.21 315.59 -229.34 326.74 -235.62 338.03 -242.09 349.46 -248.75 361.08 -255.58 372.89 -262.51 384.91 -269.45 397.13 -276.31 409.55 -283.04 422.15 -289.59 434.91 -295.95 447.79 -302.17 460.75 -308.31 473.76 -314.49 486.77 -320.79 499.72 -327.34 512.56 -334.19 525.24 -341.38 537.71 -348.9 549.93 -356.67 561.85 -364.57 573.44 -372.45 584.68 -380.14 595.55 -387.48 606.04 -394.34 616.15 -400.65 625.91 -406.39 635.34 -411.63 644.47 -416.52 653.36 -421.25 662.07 -426.06 670.64 -431.2 679.17 -436.88 692.06 -446.89 696.39 -450.49" stroke-dasharray="1 5" transform="rotate(0, 711, 400)" opacity="1.00"></path><path d="M709.98 -420.9Q724.36 -415.8 738.87 -411.01 753.43 -406.32 767.97 -401.53 782.39 -396.46 796.63 -390.98 810.6 -385.02 824.23 -378.58 837.45 -371.71 850.19 -364.49 862.4 -357.06 874.03 -349.56 885.05 -342.12 895.43 -334.85 905.18 -327.82 914.3 -321.09 922.82 -314.62 930.76 -308.38 938.19 -302.3 945.16 -296.28 951.75 -290.23 958.06 -284.09 964.17 -277.81 970.2 -271.36 976.25 -264.76 982.45 -258.07 988.89 -251.35 995.69 -244.68 1002.97 -238.14 1010.81 -231.78 1019.3 -225.62 1028.53 -219.66 1038.56 -213.86 1049.44 -208.13 1061.18 -202.37 1073.82 -196.47 1087.34 -190.32 1101.71 -183.84 1116.89 -176.98 1132.81 -169.75 1149.39 -162.19 1166.53 -154.4 1184.12 -146.54 1202.03 -138.76 1220.13 -131.24 1238.27 -124.14 1256.3 -117.57 1274.08 -111.6 1291.46 -106.23 1308.3 -101.37 1324.46 -96.88 1339.82 -92.56 1354.28 -88.17 1367.75 -83.47 1380.15 -78.24 1391.44 -72.28 1401.59 -65.51 1410.6 -57.91 1418.49 -49.55 1425.31 -40.6 1431.12 -31.32 1436.02 -22.01 1440.13 -12.98 1443.58 -4.55 1426.73 8.79 1409.87 22.13 1394.37 35.48 1381.49 48.82 1372.29 62.16 1367.52 75.51 1367.57 88.85 1372.43 102.19 1381.72 115.54 1394.66 128.88 1410.21 142.23 1427.09 155.57 1443.92 168.91 1459.32 182.26 1472.04 195.6 1481.04 208.94 1485.58 222.29 1485.29 235.63 1480.2 248.98 1470.72 262.32 1457.62 275.66 1441.98 289.01 1425.07 302.35 1408.28 315.69 1392.98 329.04 1380.42 342.38 1371.62 355.73 1367.31 369.07 1367.83 382.41 1373.15 395.76 1382.83 409.1 1396.08 422.44 1411.82 435.79 1428.75 449.13 1445.5 462.48 1460.69 475.82 1473.1 489.16 1481.69 502.51 1485.77 515.85 1485.01 529.19 1479.46 542.54 1469.59 555.88 1456.19 569.23 1440.37 582.57 1423.41 595.91 1406.71 609.26 1391.62 622.6 1379.38 635.95 1370.99 649.29 1367.14 662.63 1368.14 675.98 1373.91 689.32 1383.98 702.66 1397.52 716.01 1413.43 729.35 1430.41 742.7 1447.07 756.04 1462.04 769.38 1474.11 782.73 1482.29 796.07 1485.91 809.41 1484.67 822.76 1478.68 836.1 1468.42 849.45 1450.42 848.37 1431.82 844.09 1412.81 837.74 1393.54 830.66 1374.2 824.32 1354.95 820.09 1335.96 819.16 1317.39 822.36 1299.37 830.09 1282.05 842.27 1265.53 858.32 1249.91 877.27 1235.26 897.78 1221.63 918.36 1209.05 937.5 1197.52 953.79 1187.04 966.17 1177.55 973.93 1161.71 973.55 1148.17 962.58 1129.89 943.85 1117.49 947.88 1112.27 960.18 1106.68 976.87 1100.62 996.88 1093.98 1018.78 1086.69 1040.93 1078.69 1061.64 1069.93 1079.35 1060.38 1092.83 1050.03 1101.28 1038.88 1104.42 1026.97 1102.57 1014.31 1096.58 1000.99 1087.73 987.04 1077.67 972.57 1068.14 957.65 1060.88 942.38 1057.4 926.85 1058.78 911.18 1065.64 895.46 1077.97 879.78 1095.2 864.25 1116.2 848.96 1139.45 833.98 1163.16 819.38 1185.47 805.23 1204.67 791.57 1219.34 778.43 1228.57 765.84 1232.01 753.8 1229.93 742.32 1223.2 731.37 1213.2 720.92 1201.67 710.94 1190.53 701.37 1181.69 692.17 1176.81 680.1 1164.71 668.49 1158.54 657.34 1158.2 646.62 1162.99 636.3 1171.68 626.34 1182.6 616.69 1193.89 607.29 1203.64 598.09 1210.14 589.03 1212.04 580.04 1208.49 571.08 1199.22 562.08 1184.59 552.99 1165.51 543.76 1143.39 534.36 1119.91 524.74 1096.91 514.89 1076.14 504.78 1059.13 494.41 1046.95 483.77 1040.17 472.87 1038.78 461.72 1042.18 450.35 1049.28 438.78 1058.6 427.05 1068.43 415.18 1077.02 403.22 1082.79 391.21 1084.46 379.18 1081.2 367.18 1072.71 355.23 1059.28 343.37 1041.68 331.64 1021.16 320.04 999.24 308.6 977.58 297.33 957.81 286.22 941.33 275.28 929.18 264.48 921.9 253.83 919.56 243.28 921.64 232.82 927.21 222.41 934.93 212.01 943.27 201.59 950.65 191.11 955.6 180.53 956.94 169.81 953.86 158.92 946.06 147.84 933.73 136.53 917.55 124.98 898.6 113.18 878.24 101.13 857.97 88.83 839.27 76.29 823.41 63.53 811.39 50.59 803.73 37.49 800.53 24.29 801.37 11.03 805.45 -10.18 808.52 -19.7 792.48 -20.02 779.51 -19.07 766.54 -16.94 753.56 -13.78 740.59 -9.87 727.62 -5.52 714.64 -1.08 701.67 3.07 688.7 6.6 675.73 9.23 662.75 10.74 649.78 11 636.81 10 623.83 7.81 610.86 4.61 597.89 0.67 584.92 -3.69 571.94 -8.12 558.97 -12.25 546 -15.75 533.02 -18.33 520.05 -19.78 507.08 -19.98 494.1 -18.92 481.13 -16.67 468.16 -13.43 455.19 -9.46 442.21 -5.08 429.24 -0.66 416.27 3.44 403.29 6.9 390.32 9.43 377.35 10.82 364.38 10.96 351.4 9.83 338.43 7.54 325.46 4.25 312.48 0.25 299.51 -4.12 286.54 -8.54 273.56 -12.63 260.59 -16.05 247.62 -18.53 234.65 -19.86 221.67 -19.93 208.7 -18.75 195.73 -16.4 182.75 -13.07 169.78 -9.05 156.81 -4.65 143.84 -0.24 130.86 3.81 117.89 7.19 104.92 9.62 91.94 10.89 78.97 10.91 66 9.66 53.02 7.26 40.05 3.89 27.08 -0.15 14.11 -4.56 1.13 -8.96 -11.83 0.37 -21.35 9.99 -30.52 19.92 -39.07 30.16 -46.81 40.71 -53.64 51.57 -59.58 62.73 -64.72 74.16 -69.27 85.83 -73.45 97.71 -77.53 109.76 -81.78 121.94 -86.43 134.21 -91.64 146.52 -97.51 158.84 -104.05 171.11 -111.2 183.31 -118.85 195.4 -126.81 207.35 -134.9 219.15 -142.92 230.78 -150.71 242.24 -158.14 253.52 -165.13 264.63 -171.68 275.58 -177.81 286.39 -183.63 297.1 -189.23 307.72 -194.75 318.29 -200.32 328.85 -206.04 339.43 -211.99 350.07 -218.18 360.8 -224.62 371.65 -231.26 382.66 -238.03 393.85 -244.85 405.24 -251.62 416.84 -258.3 428.65 -264.82 440.68 -271.19 452.91 -277.43 465.32 -283.59 477.9 -289.74 490.61 -295.97 503.41 -302.35 516.26 -308.93 529.12 -315.75 541.93 -322.78 554.64 -329.99 567.21 -337.28 579.58 -344.54 591.7 -351.65 603.54 -358.5 615.05 -364.98 626.21 -371.06 636.98 -376.72 647.36 -382.01 657.35 -387.05 666.94 -391.97 676.16 -396.95 685.04 -402.19 693.6 -407.84 705.93 -417.48 709.98 -420.9" stroke-dasharray="2 2" transform="rotate(3.7407407407407405, 711, 400)" opacity="0.96"></path><path d="M724.02 -391.31Q737.49 -386.18 750.78 -381.26 763.82 -376.39 776.54 -371.44 788.89 -366.27 800.82 -360.8 812.29 -354.97 823.26 -348.8 833.7 -342.32 843.61 -335.6 852.97 -328.73 861.8 -321.83 870.11 -314.97 877.94 -308.23 885.33 -301.67 892.34 -295.3 899.02 -289.11 905.45 -283.06 917.91 -271.09 930.39 -258.95 936.88 -252.66 943.67 -246.23 950.83 -239.67 958.47 -233.04 966.65 -226.41 975.44 -219.86 984.9 -213.47 995.08 -207.29 1006.02 -201.38 1017.72 -195.73 1030.19 -190.31 1043.42 -185.05 1057.38 -179.85 1072.03 -174.6 1087.3 -169.16 1103.13 -163.41 1119.42 -157.28 1136.08 -150.69 1153 -143.66 1170.07 -136.22 1187.15 -128.48 1204.14 -120.57 1220.89 -112.68 1237.29 -104.99 1253.22 -97.67 1268.56 -90.89 1283.21 -84.73 1297.08 -79.24 1310.08 -74.39 1322.16 -70.07 1333.26 -66.12 1343.37 -62.32 1352.47 -58.42 1360.57 -54.17 1373.5 -43.34 1383.91 -30 1387.88 -21.85 1391.32 -13.04 1394.36 -3.82 1397.15 5.52 1381.41 18.1 1367.08 30.69 1355.25 43.27 1346.81 55.86 1342.4 68.44 1342.36 81.02 1346.69 93.61 1355.06 106.19 1366.84 118.78 1381.13 131.36 1396.85 143.95 1412.82 156.53 1427.81 169.12 1440.69 181.7 1450.48 194.29 1456.45 206.87 1458.14 219.45 1455.41 232.04 1448.49 244.62 1437.89 257.21 1424.41 269.79 1409.09 282.38 1393.07 294.96 1377.58 307.55 1363.79 320.13 1352.74 332.72 1345.28 345.3 1341.97 357.89 1343.05 370.47 1348.46 383.06 1357.77 395.64 1370.28 408.22 1385.05 420.81 1400.95 433.39 1416.78 445.98 1431.33 458.56 1443.51 471.15 1452.39 483.73 1457.3 496.32 1457.86 508.9 1454.03 521.49 1446.11 534.07 1434.69 546.66 1420.63 559.24 1405.02 571.83 1389.02 584.41 1373.85 597 1360.67 609.58 1350.47 622.17 1344.02 634.75 1341.82 647.33 1344.03 659.92 1350.49 672.5 1360.69 685.09 1373.88 697.67 1389.05 710.26 1405.05 722.84 1420.66 735.43 1434.71 748.01 1446.13 760.6 1454.04 773.18 1457.86 785.77 1457.29 798.35 1452.38 810.94 1437.16 804.77 1421.12 798.38 1404.36 793.03 1387.03 789.88 1369.25 789.91 1351.18 793.76 1332.95 801.73 1314.72 813.67 1296.63 829.06 1278.82 847.02 1261.41 866.4 1244.53 885.9 1228.29 904.2 1212.77 920.07 1198.06 932.51 1184.2 940.87 1171.25 944.89 1159.22 944.74 1148.12 941.02 1137.93 934.68 1128.62 926.94 1120.13 919.2 1105.69 910.99 1093.04 913.45 1087.51 922.35 1082.25 935.6 1077.17 952.54 1072.13 972.14 1067.04 993.08 1061.77 1013.9 1056.23 1033.15 1050.33 1049.51 1043.97 1061.92 1037.08 1069.74 1029.6 1072.76 1021.49 1071.25 1012.71 1065.93 1003.25 1057.94 993.09 1048.66 982.25 1039.63 970.74 1032.37 958.61 1028.25 945.91 1028.34 932.68 1033.28 919 1043.24 904.94 1057.91 890.57 1076.47 875.99 1097.73 861.27 1120.2 846.5 1142.29 831.76 1162.38 817.13 1179.09 802.69 1191.33 788.5 1198.46 774.62 1200.34 761.1 1197.36 747.98 1190.39 735.3 1180.73 723.07 1169.92 711.32 1159.67 700.02 1151.62 689.19 1147.22 679.58 1135.59 670.33 1129.32 661.37 1128.39 652.67 1132.22 644.16 1139.78 635.78 1149.66 627.47 1160.26 619.18 1169.9 602.37 1177.95 585.14 1172.3 576.19 1160.64 566.99 1144.48 557.53 1124.86 547.79 1103.13 537.77 1080.84 527.46 1059.6 516.89 1040.89 506.05 1025.91 494.98 1015.5 483.7 1010.04 472.25 1009.4 460.65 1012.99 448.94 1019.8 437.17 1028.5 425.37 1037.6 413.57 1045.58 401.82 1051.04 390.14 1052.86 378.56 1050.27 367.1 1042.95 355.78 1031.07 344.62 1015.22 333.62 996.4 322.79 975.89 312.1 955.12 301.57 935.54 291.16 918.44 280.85 904.9 270.63 895.59 260.46 890.79 250.32 890.29 240.16 893.5 229.96 899.45 219.68 906.89 209.3 914.46 198.78 920.8 188.11 924.67 177.25 925.1 166.2 921.48 154.95 913.58 143.49 901.63 131.83 886.23 119.98 868.33 107.96 849.11 95.78 829.88 83.47 811.92 71.08 796.39 58.64 784.17 46.18 775.83 33.76 771.53 14.73 766.31 7.89 749.43 8.82 737.28 10.75 725.13 13.53 712.98 16.95 700.83 20.75 688.68 24.65 676.53 28.35 664.38 31.56 652.23 34.05 640.08 35.62 627.93 36.16 615.78 35.62 603.63 34.05 591.48 31.57 579.33 28.35 567.18 24.66 555.03 20.76 542.88 16.96 530.72 13.53 518.57 10.75 506.42 8.82 494.27 7.89 482.12 8.02 469.97 9.22 457.82 11.38 445.67 14.35 433.52 17.9 421.37 21.75 409.22 25.63 397.07 29.22 384.92 32.27 372.77 34.54 360.62 35.86 348.47 36.12 336.32 35.32 324.17 33.5 312.02 30.81 299.87 27.45 287.72 23.67 275.57 19.77 263.42 16.04 251.27 12.75 239.12 10.17 226.97 8.48 214.82 7.82 202.67 8.23 190.52 9.68 178.37 12.07 166.22 15.21 154.07 18.86 141.92 22.75 129.77 26.58 117.62 30.06 105.47 32.93 93.32 34.97 81.17 36.03 69.02 36.02 56.87 34.94 44.72 32.89 32.57 30 20.42 26.51 8.27 22.68 -3.87 31.54 -12.1 40.58 -19.44 49.82 -25.82 59.3 -31.27 69.02 -35.92 79 -39.95 89.23 -43.62 99.71 -47.2 110.43 -50.96 121.36 -55.13 132.49 -59.89 143.79 -65.35 155.22 -71.55 166.75 -78.44 178.35 -85.92 189.97 -93.81 201.59 -101.92 213.18 -110.04 224.69 -117.98 236.11 -125.58 247.4 -132.72 258.57 -139.34 269.58 -145.46 280.44 -151.11 291.14 -156.41 301.69 -161.48 312.1 -166.47 322.39 -171.51 332.57 -176.73 342.69 -182.21 352.75 -188.01 362.8 -194.12 372.86 -200.52 382.98 -207.14 393.19 -213.9 403.51 -220.7 413.98 -227.47 424.62 -234.11 435.46 -240.61 446.52 -246.92 457.79 -253.08 469.3 -259.13 481.03 -265.11 492.98 -271.11 505.13 -277.19 517.46 -283.4 529.94 -289.76 542.53 -296.28 555.21 -302.93 567.91 -309.66 580.6 -316.37 593.23 -323 605.74 -329.45 618.09 -335.66 630.22 -341.58 642.09 -347.2 653.66 -352.56 664.89 -357.73 675.75 -362.81 686.22 -367.93 696.28 -373.22 705.93 -378.82 719.6 -388.07 724.02 -391.31" stroke-dasharray="6 2" transform="rotate(7.481481481481481, 711, 400)" opacity="0.93"></path><path d="M732.26 -361.72Q743.71 -356.58 754.77 -351.55 765.43 -346.55 775.66 -341.45 785.44 -336.19 794.76 -330.71 803.62 -324.98 812.04 -319.02 820.04 -312.85 827.64 -306.55 834.88 -300.17 841.81 -293.8 848.49 -287.49 854.97 -281.28 867.63 -269.35 880.35 -257.73 886.94 -252 893.79 -246.21 900.97 -240.31 908.55 -234.26 916.59 -228.04 925.16 -221.64 934.3 -215.1 944.05 -208.47 954.45 -201.83 965.51 -195.26 977.23 -188.87 989.62 -182.71 1002.65 -176.86 1016.29 -171.33 1030.49 -166.12 1045.2 -161.18 1060.35 -156.43 1075.87 -151.76 1091.67 -147.03 1107.65 -142.1 1123.72 -136.85 1139.77 -131.17 1155.69 -125 1171.39 -118.31 1186.75 -111.13 1201.68 -103.55 1216.08 -95.69 1229.87 -87.74 1242.96 -79.87 1255.3 -72.29 1266.82 -65.17 1277.49 -58.64 1287.29 -52.81 1296.2 -47.7 1311.01 -39.59 1323.39 -32.6 1332.36 -25.19 1339.83 -16.12 1345.93 -2.87 1351.97 12.92 1338.93 24.68 1328.31 36.44 1320.87 48.2 1317.12 59.96 1317.32 71.72 1321.46 83.49 1329.25 95.25 1340.15 107.01 1353.38 118.77 1368.03 130.53 1383.05 142.29 1397.41 154.05 1410.09 165.81 1420.21 177.57 1427.04 189.33 1430.12 201.09 1429.23 212.85 1424.43 224.61 1416.06 236.37 1404.7 248.13 1391.15 259.9 1376.37 271.66 1361.38 283.42 1347.24 295.18 1334.94 306.94 1325.35 318.7 1319.14 330.46 1316.74 342.22 1318.31 353.98 1323.76 365.74 1332.7 377.5 1344.5 389.26 1358.33 401.02 1373.23 412.78 1388.14 424.54 1402.03 436.3 1413.92 448.06 1422.97 459.82 1428.55 471.59 1430.27 483.35 1428 495.11 1421.92 506.87 1412.44 518.63 1400.22 530.39 1386.13 542.15 1371.16 553.91 1356.35 565.67 1342.74 577.43 1331.29 589.19 1322.8 600.95 1317.86 612.71 1316.83 624.47 1319.77 636.23 1326.48 647.99 1336.49 659.75 1349.09 671.51 1363.41 683.27 1378.43 695.03 1393.1 706.8 1406.41 718.56 1417.4 730.32 1425.31 742.08 1423.66 757.69 1404.6 759.87 1390.62 761.31 1375.85 766.32 1360.4 775.02 1344.37 787.22 1327.87 802.36 1311.02 819.63 1293.95 838.02 1276.77 856.38 1259.62 873.57 1242.62 888.53 1225.87 900.41 1209.49 908.64 1193.58 912.95 1178.23 913.47 1163.51 910.67 1149.49 905.31 1136.23 898.42 1123.74 891.18 1112.07 884.81 1101.2 880.45 1091.13 879.09 1081.84 881.44 1073.29 887.86 1065.43 898.36 1058.19 912.56 1051.51 929.73 1045.3 948.88 1039.48 968.79 1033.96 988.19 1028.64 1005.84 1023.42 1020.62 1018.21 1031.71 1007.32 1039.12 995.66 1034.73 989.19 1027.4 982.26 1018.85 974.82 1010.41 966.84 1003.42 958.27 999.09 949.12 998.4 939.37 1002 929.03 1010.14 918.13 1022.68 906.68 1039.03 894.74 1058.28 882.34 1079.23 869.54 1100.5 856.4 1120.68 842.99 1138.46 829.36 1152.71 815.59 1162.65 801.75 1167.87 787.91 1168.39 774.13 1164.68 760.48 1157.61 747.01 1148.34 733.78 1138.27 720.82 1128.88 708.19 1121.58 695.9 1117.63 680.46 1102.58 665.17 1101.62 657.46 1108.08 649.65 1116.92 641.67 1126.75 633.5 1136.11 625.1 1143.61 616.44 1148.01 607.5 1148.41 598.27 1144.25 588.74 1135.39 578.91 1122.16 568.79 1105.25 558.39 1085.69 547.74 1064.76 536.85 1043.84 525.75 1024.29 514.48 1007.35 503.08 994 491.57 984.88 479.99 980.25 468.39 979.93 456.79 983.37 445.23 989.67 433.74 997.69 422.35 1006.11 411.08 1013.63 399.94 1019 388.96 1021.22 378.14 1019.55 367.49 1013.65 356.99 1003.54 346.65 989.65 336.45 972.74 326.37 953.83 316.4 934.14 306.5 914.93 296.66 897.4 286.85 882.6 277.04 871.3 267.2 863.97 257.3 860.68 247.31 861.15 237.22 864.74 227 870.56 216.63 877.49 206.1 884.35 195.41 889.95 184.56 893.26 173.53 893.43 162.35 889.95 151.03 882.63 139.58 871.62 128.03 857.43 116.4 840.85 104.73 822.86 93.05 804.6 81.39 787.18 69.8 771.65 58.31 758.86 46.96 749.4 35.78 743.55 35.86 732.04 36.82 720.53 38.6 709.02 41.08 697.52 44.07 686.01 47.37 674.5 50.76 662.99 53.98 651.48 56.82 639.97 59.07 628.46 60.58 616.95 61.24 605.44 61.01 593.93 59.9 582.42 57.99 570.91 55.41 559.4 52.34 547.89 49.01 536.38 45.64 524.88 42.47 513.37 39.72 501.86 37.58 490.35 36.21 478.84 35.71 467.33 36.09 455.82 37.35 444.31 39.39 432.8 42.06 421.29 45.19 409.78 48.55 398.27 51.9 386.76 55.01 375.25 57.67 363.74 59.68 352.23 60.91 340.73 61.26 329.22 60.72 317.71 59.32 306.2 57.16 294.69 54.39 283.18 51.21 271.67 47.84 260.16 44.51 248.65 41.46 237.14 38.9 225.63 37.02 214.12 35.94 202.61 35.74 191.1 36.43 179.59 37.97 168.08 40.25 156.57 43.1 145.06 46.33 133.55 49.72 122.05 53.01 110.54 55.99 99.03 58.44 87.52 60.2 76.01 61.13 64.5 61.18 52.99 60.33 41.48 58.66 29.97 56.27 18.46 53.33 6.95 61.94 1.22 70.63 -3.57 79.43 -7.6 88.39 -11.06 97.51 -14.21 106.82 -17.32 116.32 -20.66 126.04 -24.46 135.95 -28.9 146.07 -34.09 156.38 -40.06 166.86 -46.77 177.49 -54.13 188.26 -61.95 199.13 -70.05 210.08 -78.22 221.07 -86.24 232.09 -93.93 243.09 -101.16 254.05 -107.84 264.94 -113.94 275.75 -119.49 286.44 -124.57 297.01 -129.29 307.44 -133.81 317.73 -138.28 327.87 -142.84 337.87 -147.63 347.74 -152.74 357.49 -158.22 367.13 -164.08 376.7 -170.3 386.21 -176.82 395.69 -183.53 405.18 -190.35 414.7 -197.18 424.3 -203.91 433.99 -210.48 443.81 -216.85 453.79 -223 463.95 -228.95 474.33 -234.74 484.92 -240.42 495.75 -246.07 506.82 -251.74 518.14 -257.5 529.69 -263.38 541.46 -269.39 553.44 -275.52 565.61 -281.75 577.92 -288.02 590.35 -294.26 602.86 -300.41 615.4 -306.42 627.93 -312.24 640.4 -317.86 652.75 -323.29 664.95 -328.57 676.93 -333.78 688.66 -338.98 700.1 -344.3 711.19 -349.81 727.09 -358.66 732.26 -361.72" stroke-dasharray="3 4" transform="rotate(11.222222222222221, 711, 400)" opacity="0.89"></path><path d="M731.04 -332.14Q740.11 -326.99 748.8 -321.9 757.12 -316.78 765.07 -311.58 772.69 -306.23 779.99 -300.73 787.02 -295.06 793.81 -289.26 800.42 -283.34 806.9 -277.38 819.71 -265.55 832.67 -253.99 839.39 -248.43 846.36 -242.98 853.62 -237.6 861.24 -232.26 869.27 -226.87 877.76 -221.39 886.75 -215.76 896.26 -209.92 906.33 -203.86 916.96 -197.58 928.17 -191.1 939.94 -184.49 952.27 -177.82 965.12 -171.18 978.46 -164.68 992.25 -158.4 1006.44 -152.43 1020.95 -146.82 1035.72 -141.59 1050.68 -136.75 1065.74 -132.22 1080.82 -127.93 1095.83 -123.75 1110.68 -119.55 1125.28 -115.19 1139.56 -110.51 1153.42 -105.41 1166.79 -99.78 1179.6 -93.59 1191.8 -86.84 1203.31 -79.58 1214.11 -71.93 1224.17 -64.04 1233.45 -56.08 1241.97 -48.25 1249.72 -40.75 1262.69 -27.76 1273.67 -16.91 1287.25 -4.9 1295.67 2.78 1302.46 11.25 1310.1 22.24 1300.87 33.31 1294.63 44.38 1291.77 55.45 1292.48 66.52 1296.72 77.59 1304.21 88.66 1314.47 99.73 1326.83 110.8 1340.49 121.87 1354.58 132.94 1368.17 144.01 1380.4 155.08 1390.46 166.15 1397.72 177.22 1401.69 188.29 1402.13 199.36 1399 210.43 1392.51 221.5 1383.07 232.57 1371.3 243.65 1357.96 254.72 1343.91 265.79 1330.06 276.86 1317.31 287.93 1306.47 299 1298.26 310.07 1293.19 321.14 1291.61 332.21 1293.61 343.28 1299.06 354.35 1307.61 365.42 1318.71 376.49 1331.64 387.56 1345.56 398.63 1359.57 409.7 1372.77 420.77 1384.3 431.84 1393.42 442.91 1399.54 453.98 1402.26 465.05 1401.41 476.12 1397.03 487.19 1389.42 498.26 1379.07 509.33 1366.64 520.4 1352.94 531.47 1338.86 542.54 1325.3 553.61 1313.15 564.68 1303.18 575.75 1296.05 586.82 1292.21 597.89 1291.92 608.96 1295.19 620.03 1301.8 631.1 1311.34 642.17 1323.19 653.24 1336.57 664.31 1350.63 675.39 1364.46 686.46 1377.15 697.53 1387.9 708.6 1393.82 726.83 1381.45 740.55 1370.38 750.37 1358.47 763.14 1345.77 778.29 1332.33 795.04 1318.23 812.47 1303.54 829.59 1288.37 845.42 1272.8 859.09 1256.94 869.9 1240.89 877.38 1224.75 881.35 1208.63 881.93 1192.63 879.52 1176.85 874.78 1161.38 868.59 1146.3 861.94 1131.69 855.9 1117.63 851.47 1104.15 849.54 1091.32 850.78 1079.15 855.61 1067.69 864.15 1056.92 876.19 1046.86 891.23 1037.48 908.5 1028.76 927.04 1020.66 945.77 1013.14 963.59 1006.14 979.46 999.6 992.48 979.49 1004.41 965.9 996.2 954.79 981.15 943.03 969.76 929.6 973.5 914.88 989.14 906.7 1003.61 898.01 1020.99 888.83 1040.32 879.13 1060.44 868.95 1080.15 858.3 1098.24 847.21 1113.65 835.72 1125.53 823.86 1133.33 811.69 1136.84 799.25 1136.2 786.59 1131.94 773.78 1124.86 760.87 1116.04 747.91 1106.71 734.97 1098.14 722.09 1091.57 709.32 1088.05 694.75 1073.21 679.61 1071.18 671.63 1076.61 663.36 1084.4 654.8 1093.4 645.92 1102.34 636.74 1109.99 627.25 1115.22 617.45 1117.13 607.37 1115.09 597.01 1108.84 586.41 1098.45 575.6 1084.35 564.59 1067.27 553.44 1048.21 542.16 1028.31 530.8 1008.76 519.39 990.74 507.97 975.27 496.58 963.15 485.23 954.89 473.97 950.67 462.82 950.32 451.79 953.35 440.91 958.99 430.18 966.26 419.62 974.04 409.24 981.19 399.02 986.61 388.96 989.39 379.05 988.83 369.28 984.52 359.63 976.38 350.08 964.65 340.61 949.86 331.19 932.82 321.8 914.49 312.41 895.96 303 878.31 293.54 862.54 284.01 849.47 274.39 839.7 264.66 833.53 254.81 830.98 244.83 831.72 234.71 835.19 224.44 840.57 214.05 846.91 203.51 853.18 192.86 858.36 182.11 861.54 171.26 861.99 160.35 859.22 149.41 853 138.45 843.42 127.5 830.84 116.61 815.86 105.79 799.29 95.09 782.07 84.52 765.17 74.11 749.52 63.89 735.97 64.91 724.84 66.57 713.71 68.78 702.58 71.39 691.46 74.24 680.33 77.13 669.2 79.88 658.07 82.32 646.94 84.28 635.81 85.64 624.69 86.31 613.56 86.25 602.43 85.46 591.3 83.99 580.17 81.95 569.04 79.45 557.92 76.66 546.79 73.76 535.66 70.94 524.53 68.39 513.4 66.26 502.27 64.7 491.15 63.8 480.02 63.62 468.89 64.18 457.76 65.44 446.63 67.31 435.5 69.68 424.38 72.4 413.25 75.28 402.12 78.14 390.99 80.8 379.86 83.08 368.73 84.84 357.61 85.96 346.48 86.37 335.35 86.05 324.22 85.01 313.09 83.32 301.96 81.09 290.84 78.47 279.71 75.62 268.58 72.73 257.45 69.99 246.32 67.57 235.19 65.63 224.07 64.29 212.94 63.65 201.81 63.74 190.68 64.55 179.55 66.05 168.42 68.12 157.29 70.63 146.17 73.43 135.04 76.32 123.91 79.13 112.78 81.67 101.65 83.78 90.52 85.32 79.4 86.2 68.27 86.34 57.14 85.75 46.01 87.77 27.66 99.58 17.6 108.13 14.96 116.76 12.24 125.47 9.2 134.31 5.62 143.29 1.34 152.41 -3.72 161.7 -9.61 171.15 -16.26 180.77 -23.57 190.55 -31.37 200.48 -39.46 210.55 -47.63 220.75 -55.67 231.04 -63.38 241.42 -70.62 251.86 -77.28 262.33 -83.31 272.81 -88.73 283.27 -93.6 293.69 -98.02 304.04 -102.14 314.3 -106.12 324.47 -110.11 334.51 -114.27 344.42 -118.72 354.19 -123.56 363.82 -128.83 373.3 -134.54 382.66 -140.65 391.88 -147.11 401 -153.81 410.02 -160.65 418.97 -167.51 427.87 -174.29 436.74 -180.9 445.63 -187.28 454.56 -193.39 463.55 -199.23 472.65 -204.83 481.88 -210.22 491.26 -215.49 500.83 -220.69 510.61 -225.9 520.61 -231.18 530.86 -236.58 541.36 -242.13 552.11 -247.81 563.11 -253.63 574.37 -259.54 585.86 -265.49 597.57 -271.42 609.48 -277.3 621.55 -283.06 633.75 -288.7 646.05 -294.2 658.4 -299.57 670.76 -304.86 683.09 -310.12 695.32 -315.41 707.43 -320.8 725.2 -329.25 731.04 -332.14" stroke-dasharray="3 1" transform="rotate(14.962962962962962, 711, 400)" opacity="0.86"></path><path d="M720.9 -302.55Q735.02 -292.26 748.57 -281.81 761.55 -270.82 774.48 -259.55 781.04 -253.83 787.73 -248.13 794.61 -242.5 801.73 -236.98 809.13 -231.59 816.86 -226.36 824.96 -221.27 833.47 -216.3 842.41 -211.39 851.81 -206.51 861.69 -201.56 872.05 -196.5 882.9 -191.24 894.23 -185.75 906.02 -179.98 918.26 -173.95 930.91 -167.65 943.93 -161.14 957.28 -154.5 970.91 -147.8 984.77 -141.17 998.77 -134.7 1012.87 -128.49 1026.99 -122.63 1041.06 -117.18 1055 -112.17 1068.75 -107.58 1082.23 -103.38 1095.37 -99.47 1108.11 -95.74 1120.38 -92.06 1132.14 -88.26 1143.33 -84.22 1153.92 -79.77 1163.88 -74.83 1173.18 -69.3 1181.81 -63.17 1189.77 -56.44 1197.08 -49.2 1203.74 -41.56 1209.8 -33.68 1215.29 -25.73 1224.59 -10.71 1232.72 2.82 1244.91 18.09 1253.9 25.9 1262.78 31.06 1273.16 37.37 1268.28 48 1266.5 58.62 1267.93 69.24 1272.49 79.86 1279.9 90.48 1289.72 101.11 1301.37 111.73 1314.15 122.35 1327.31 132.97 1340.07 143.59 1351.67 154.22 1361.41 164.84 1368.72 175.46 1373.16 186.08 1374.48 196.7 1372.59 207.33 1367.6 217.95 1359.82 228.57 1349.69 239.19 1337.84 249.82 1324.95 260.44 1311.79 271.06 1299.16 281.68 1287.79 292.3 1278.37 302.93 1271.45 313.55 1267.44 324.17 1266.58 334.79 1268.93 345.41 1274.35 356.04 1282.5 366.66 1292.92 377.28 1304.97 387.9 1317.94 398.53 1331.07 409.15 1343.57 419.77 1354.69 430.39 1363.79 441.01 1370.31 451.64 1373.87 462.26 1374.26 472.88 1371.46 483.5 1365.63 494.13 1357.11 504.75 1346.42 515.37 1334.19 525.99 1321.15 536.61 1308.06 547.24 1295.72 557.86 1284.85 568.48 1276.09 579.1 1269.98 589.73 1266.86 600.35 1266.94 610.97 1270.19 621.59 1276.44 632.21 1285.3 642.84 1296.25 653.46 1308.65 664.08 1321.75 674.7 1334.77 685.33 1346.95 695.95 1357.55 706.57 1365.95 717.19 1359.19 728.31 1351.66 741.76 1343.34 756.95 1334.23 773.15 1324.33 789.52 1313.68 805.2 1302.29 819.4 1290.21 831.41 1277.5 840.71 1264.21 846.96 1250.42 850.07 1236.19 850.21 1221.61 847.75 1206.77 843.3 1191.74 837.62 1176.62 831.57 1161.49 826.06 1146.44 821.95 1131.55 820.01 1116.9 820.84 1102.56 824.85 1088.6 832.17 1075.08 842.69 1062.05 856.06 1049.54 871.68 1037.61 888.79 1026.26 906.47 1015.51 923.8 1005.37 939.82 995.83 953.72 986.87 964.8 978.48 972.61 963.48 976.27 949.81 970.89 943.62 964.42 937.71 957.14 918.28 943.27 904.45 947.39 898.68 956.99 892.69 969.93 886.43 985.67 879.86 1003.42 872.94 1022.26 865.65 1041.13 857.95 1058.99 849.84 1074.87 841.31 1087.93 832.34 1097.57 822.96 1103.41 813.17 1105.42 802.99 1103.82 792.45 1099.14 781.57 1092.17 770.39 1083.84 758.95 1075.24 747.29 1067.47 735.45 1061.57 723.48 1058.46 715.74 1048.23 707.7 1041.92 699.33 1039.57 690.65 1040.9 681.65 1045.35 672.33 1052.12 662.71 1060.24 652.8 1068.64 642.62 1076.24 632.2 1082.02 621.57 1085.13 610.75 1084.92 599.78 1081.01 588.69 1073.3 577.53 1062 566.31 1047.58 555.08 1030.78 543.87 1012.48 532.72 993.7 521.64 975.47 510.66 958.77 499.82 944.47 489.12 933.21 478.57 925.44 468.2 921.28 458 920.61 447.99 923.02 438.14 927.86 428.47 934.32 418.96 941.45 409.59 948.25 400.35 953.79 391.23 957.21 382.19 957.84 373.23 955.23 364.31 949.19 355.41 939.79 346.51 927.36 337.59 912.47 328.62 895.88 319.59 878.46 310.48 861.14 301.27 844.85 291.95 830.4 282.52 818.49 272.97 809.57 263.29 803.9 253.49 801.44 243.58 801.93 233.56 804.88 223.45 809.61 213.27 815.3 203.03 821.08 192.74 826.07 182.45 829.46 172.16 830.58 161.91 828.94 151.72 824.27 141.61 816.53 131.61 805.93 121.73 792.9 112.01 778.04 102.45 762.11 93.07 745.93 94.62 735 96.59 724.06 98.84 713.13 101.25 702.2 103.68 691.27 105.97 680.33 108 669.4 109.64 658.47 110.8 647.54 111.4 636.6 111.42 625.67 110.84 614.74 109.71 603.81 108.09 592.87 106.07 581.94 103.79 571.01 101.36 560.08 98.95 549.14 96.68 538.21 94.7 527.28 93.13 516.35 92.05 505.41 91.53 494.48 91.6 483.55 92.26 472.62 93.47 461.68 95.15 450.75 97.21 439.82 99.53 428.89 101.96 417.95 104.36 407.02 106.59 396.09 108.52 385.16 110.03 374.22 111.03 363.29 111.47 352.36 111.31 341.43 110.57 330.49 109.29 319.56 107.54 308.63 105.44 297.7 103.1 286.76 100.66 275.83 98.27 264.9 96.08 253.97 94.2 243.04 92.76 232.1 91.84 221.17 91.49 210.24 91.73 199.31 92.56 188.37 93.91 177.44 95.71 166.51 97.86 155.58 100.22 144.64 102.66 133.71 105.03 122.78 107.18 111.85 109 100.92 110.37 89.98 111.22 79.05 111.48 68.12 114.94 50.61 127.14 41.57 135.55 38.67 143.96 35.12 152.42 30.81 160.93 25.66 169.53 19.69 178.22 12.96 187.03 5.59 195.96 -2.23 205.02 -10.32 214.22 -18.46 223.55 -26.44 233.02 -34.07 242.61 -41.21 252.31 -47.74 262.11 -53.61 272 -58.83 281.96 -63.45 291.95 -67.56 301.98 -71.31 312 -74.85 322 -78.33 331.96 -81.94 341.86 -85.8 351.67 -90.04 361.38 -94.72 370.98 -99.9 380.45 -105.55 389.78 -111.65 398.97 -118.1 408.01 -124.82 416.91 -131.68 425.68 -138.55 434.31 -145.34 442.83 -151.94 451.26 -158.27 459.6 -164.29 467.9 -169.99 476.16 -175.37 484.42 -180.49 492.71 -185.39 501.06 -190.16 509.49 -194.87 518.04 -199.61 526.73 -204.44 535.6 -209.4 544.66 -214.54 553.94 -219.87 563.46 -225.37 573.22 -231.01 583.25 -236.75 593.55 -242.55 604.11 -248.34 614.93 -254.09 626.01 -259.74 637.33 -265.29 648.86 -270.73 660.58 -276.06 672.47 -281.32 684.48 -286.55 696.58 -291.8 714.82 -299.83 720.9 -302.55" stroke-dasharray="5 6" transform="rotate(18.703703703703702, 711, 400)" opacity="0.82"></path><path d="M706.34 -272.96Q719.31 -262.69 732.39 -252.14 739.09 -246.69 745.95 -241.15 753.01 -235.55 760.31 -229.94 767.89 -224.36 775.78 -218.86 784 -213.48 792.59 -208.27 801.56 -203.25 810.92 -198.41 820.7 -193.74 830.88 -189.22 841.47 -184.79 852.46 -180.38 863.83 -175.93 875.57 -171.35 887.63 -166.58 900 -161.55 912.62 -156.22 925.46 -150.56 938.47 -144.59 951.59 -138.33 964.78 -131.83 977.96 -125.19 991.09 -118.5 1004.1 -111.86 1016.93 -105.39 1029.52 -99.21 1041.83 -93.39 1053.79 -88.01 1065.35 -83.09 1076.47 -78.66 1087.12 -74.66 1097.25 -71.03 1106.84 -67.66 1115.87 -64.43 1131.92 -57.61 1146.27 -49.87 1157.95 -39.49 1168.24 -27.26 1176.68 -12.46 1184.38 3.11 1191.54 18.19 1198.85 31.88 1207.18 42.06 1216.58 49.93 1228.42 54.85 1242.08 59.04 1241.52 69.42 1243.82 79.8 1248.86 90.18 1256.34 100.56 1265.87 110.94 1276.94 121.32 1288.93 131.7 1301.19 142.08 1313.07 152.46 1323.91 162.84 1333.12 173.22 1340.2 183.6 1344.77 193.98 1346.58 204.36 1345.53 214.74 1341.67 225.12 1335.22 235.5 1326.53 245.88 1316.07 256.26 1304.41 266.64 1292.18 277.01 1280.06 287.39 1268.68 297.77 1258.69 308.15 1250.62 318.53 1244.9 328.91 1241.86 339.29 1241.65 349.67 1244.29 360.05 1249.63 370.43 1257.38 380.81 1267.13 391.19 1278.34 401.57 1290.4 411.95 1302.65 422.33 1314.43 432.71 1325.11 443.09 1334.09 453.47 1340.89 463.85 1345.13 474.23 1346.6 484.61 1345.21 494.99 1341.03 505.37 1334.29 515.75 1325.36 526.13 1314.73 536.51 1302.97 546.89 1290.71 557.27 1278.64 567.65 1267.41 578.03 1257.61 588.41 1249.8 598.79 1244.39 609.17 1241.68 619.55 1241.82 629.93 1244.79 640.3 1250.44 650.68 1258.45 661.06 1268.4 671.44 1279.75 681.82 1291.86 692.2 1304.1 702.58 1315.78 712.96 1326.28 723.34 1321.46 738.38 1316.06 753.77 1310.04 768.78 1303.37 782.72 1296.02 794.94 1287.99 804.94 1279.28 812.34 1269.88 816.97 1259.83 818.85 1249.13 818.18 1237.84 815.37 1225.98 810.98 1213.61 805.69 1200.79 800.24 1187.57 795.39 1174.03 791.89 1160.22 790.38 1146.23 791.35 1132.11 795.15 1117.95 801.9 1103.82 811.52 1089.79 823.74 1075.91 838.06 1062.27 853.87 1048.9 870.42 1035.88 886.91 1023.24 902.52 1011.02 916.52 999.27 928.25 988 937.23 977.23 943.17 966.98 946 957.25 945.85 948.03 943.1 939.32 938.28 931.09 932.12 923.32 925.4 915.98 919 902.58 911.67 890.1 911.81 884.27 917.26 878.6 925.98 873.02 937.73 867.49 952.09 861.95 968.42 856.36 985.95 850.66 1003.79 844.81 1021.07 838.76 1036.9 832.48 1050.51 825.94 1061.3 819.1 1068.84 804.27 1072.1 788.4 1066.33 779.85 1059.54 770.94 1051.74 761.7 1043.87 752.13 1036.86 742.25 1031.61 732.09 1028.87 723.09 1019.11 713.78 1012.86 704.18 1010.15 694.31 1010.79 684.18 1014.31 673.84 1020.09 663.3 1027.3 652.59 1035.06 641.76 1042.44 630.83 1048.53 619.84 1052.54 608.82 1053.83 597.8 1051.95 586.81 1046.7 575.89 1038.09 565.05 1026.4 554.33 1012.1 543.75 995.87 533.32 978.49 523.05 960.85 512.97 943.81 503.06 928.23 493.35 914.81 483.82 904.11 474.47 896.51 465.29 892.15 456.28 890.92 447.42 892.52 438.69 896.43 430.07 901.99 421.56 908.4 413.11 914.83 404.72 920.45 396.36 924.49 379.63 923.92 362.8 914.58 354.29 904.72 345.7 892.29 337.01 877.83 328.22 862.02 319.32 845.61 310.31 829.41 301.19 814.19 291.95 800.66 282.62 789.37 273.19 780.75 263.67 775 254.09 772.13 244.45 771.94 234.77 774.05 225.07 777.91 215.38 782.85 205.71 788.14 196.08 793.03 186.51 796.8 177.03 798.81 167.64 798.57 158.37 795.74 149.23 790.18 140.24 781.94 131.39 771.25 122.7 758.53 124.42 747.78 126.33 737.03 128.33 726.29 130.32 715.54 132.17 704.79 133.8 694.04 135.11 683.29 136.04 672.54 136.52 661.79 136.54 651.05 136.1 640.3 135.22 629.55 133.94 618.8 132.34 608.05 130.5 597.3 128.52 586.55 126.52 575.81 124.59 565.06 122.85 554.31 121.39 543.56 120.29 532.81 119.61 522.06 119.38 511.31 119.62 500.56 120.31 489.82 121.42 479.07 122.89 468.32 124.64 457.57 126.57 446.82 128.57 436.07 130.55 425.32 132.38 414.58 133.98 403.83 135.24 393.08 136.12 382.33 136.55 371.58 136.52 360.83 136.02 350.08 135.08 339.33 133.76 328.59 132.13 317.84 130.27 307.09 128.28 296.34 126.28 285.59 124.37 274.84 122.66 264.09 121.24 253.34 120.18 242.6 119.55 231.85 119.38 221.1 119.68 210.35 120.42 199.6 121.58 188.85 123.09 178.1 124.86 167.35 126.81 156.61 128.81 145.86 130.78 135.11 132.59 124.36 134.15 113.61 135.37 102.86 136.19 92.11 140.74 74.49 153.26 63.86 161.56 59.28 169.83 53.86 178.1 47.63 186.37 40.69 194.68 33.18 203.04 25.28 211.47 17.2 219.99 9.14 228.6 1.3 237.32 -6.12 246.14 -13.03 255.09 -19.29 264.14 -24.88 273.31 -29.78 282.58 -34.07 291.95 -37.82 301.41 -41.17 310.94 -44.28 320.52 -47.32 330.15 -50.43 339.79 -53.78 349.44 -57.49 359.06 -61.66 368.65 -66.33 378.18 -71.54 387.63 -77.24 396.98 -83.39 406.23 -89.9 415.35 -96.64 424.34 -103.51 433.18 -110.38 441.88 -117.12 450.42 -123.64 458.82 -129.86 467.07 -135.73 475.19 -141.23 483.18 -146.37 491.06 -151.18 498.84 -155.73 506.56 -160.08 514.22 -164.33 521.86 -168.56 529.5 -172.86 537.18 -177.28 544.91 -181.89 552.72 -186.72 560.66 -191.77 568.74 -197.05 576.98 -202.51 585.43 -208.13 594.09 -213.84 602.98 -219.58 612.13 -225.32 621.54 -230.99 631.22 -236.57 641.18 -242.03 651.41 -247.37 661.92 -252.59 672.68 -257.73 683.68 -262.81 700.63 -270.41 706.34 -272.96" stroke-dasharray="0 6" transform="rotate(22.444444444444443, 711, 400)" opacity="0.79"></path><path d="M693.86 -243.37Q700.73 -238.36 707.8 -233.22 715.07 -227.97 722.58 -222.59 730.36 -217.11 738.42 -211.56 746.79 -205.99 755.48 -200.43 764.51 -194.95 773.87 -189.6 783.58 -184.42 793.63 -179.45 804.01 -174.7 814.71 -170.18 825.71 -165.87 836.99 -161.75 848.53 -157.75 860.29 -153.82 872.24 -149.86 884.33 -145.81 896.54 -141.59 908.81 -137.11 921.1 -132.33 933.36 -127.2 945.54 -121.7 957.6 -115.85 969.48 -109.68 981.14 -103.25 992.53 -96.65 1003.62 -89.98 1014.35 -83.35 1024.71 -76.87 1034.64 -70.65 1044.14 -64.8 1053.17 -59.38 1061.72 -54.46 1077.11 -46.33 1091.04 -39.49 1102.68 -33.78 1113.1 -27.95 1121.87 -20.48 1129.95 -11.35 1137.42 0.89 1144.91 14.82 1148.82 22.48 1152.93 30.31 1157.3 38.11 1161.99 45.69 1172.82 59.2 1185.09 70.71 1200.16 78.39 1217.09 83.97 1220.35 94.17 1225.94 104.36 1233.6 114.55 1242.93 124.75 1253.48 134.94 1264.73 145.13 1276.12 155.33 1287.07 165.52 1297.06 175.72 1305.58 185.91 1312.21 196.1 1316.63 206.3 1318.61 216.49 1318.06 226.69 1315 236.88 1309.58 247.07 1302.08 257.27 1292.86 267.46 1282.39 277.65 1271.17 287.85 1259.78 298.04 1248.77 308.24 1238.68 318.43 1230.03 328.62 1223.23 338.82 1218.63 349.01 1216.45 359.21 1216.8 369.4 1219.66 379.59 1224.89 389.79 1232.24 399.98 1241.34 410.17 1251.73 420.37 1262.9 430.56 1274.3 440.76 1285.37 450.95 1295.54 461.14 1304.33 471.34 1311.29 481.53 1316.08 491.73 1318.46 501.92 1318.32 512.11 1315.65 522.31 1310.6 532.5 1303.41 542.7 1294.44 552.89 1284.13 563.08 1273 573.28 1261.6 583.47 1250.48 593.67 1240.22 603.86 1231.3 614.05 1224.18 624.25 1219.21 634.44 1216.63 644.64 1216.57 654.83 1219.04 665.02 1223.91 675.22 1230.94 685.41 1239.78 695.61 1250 705.8 1261.08 715.99 1272.48 726.19 1283.64 736.38 1280.06 749.59 1276.13 761.35 1266.74 777.64 1255.85 786.81 1242.19 784.74 1226.77 777.86 1218.03 772.94 1208.71 768.16 1198.83 764.15 1188.42 761.53 1177.51 760.8 1166.14 762.35 1154.36 766.44 1142.2 773.15 1129.73 782.39 1116.99 793.92 1104.04 807.32 1090.95 822.06 1077.77 837.53 1064.56 853.04 1051.37 867.91 1038.28 881.49 1025.32 893.2 1012.56 902.6 1000.03 909.37 987.79 913.38 975.87 914.67 964.31 913.46 953.13 910.13 942.36 905.21 932.01 899.34 922.1 893.22 912.62 887.58 903.59 883.13 887 881.5 871.61 887.79 864.56 895.96 857.83 906.84 851.39 920.09 845.19 935.17 839.2 951.45 833.38 968.2 827.69 984.66 822.07 1000.07 816.49 1013.76 810.91 1025.13 799.52 1037.85 787.76 1041.57 775.07 1032.8 761.67 1019.76 754.51 1012.6 747.07 1006.32 739.33 1001.66 731.3 999.28 721.14 990 710.8 983.82 700.3 980.82 689.67 980.83 678.96 983.5 668.18 988.31 657.38 994.61 646.58 1001.66 635.81 1008.65 625.11 1014.83 614.49 1019.45 603.99 1021.92 593.62 1021.77 583.4 1018.69 573.34 1012.59 563.47 1003.57 553.78 991.89 544.29 978.03 534.99 962.56 525.89 946.19 516.98 929.64 508.24 913.69 499.68 899.01 491.28 886.24 483.02 875.86 474.89 868.2 458.98 862.72 443.27 864.9 435.48 869.43 427.7 875.02 419.91 880.96 412.09 886.54 396.26 892.89 380.19 892.94 372 888.48 363.71 881.31 355.31 871.6 346.79 859.67 338.18 846 329.46 831.15 320.64 815.78 311.73 800.57 302.74 786.17 293.69 773.18 284.58 762.11 275.43 753.33 266.27 747.06 257.1 743.36 247.94 742.12 238.81 743.07 229.73 745.81 220.71 749.81 211.77 754.48 202.91 759.17 194.16 763.27 185.53 766.19 168.68 765.41 152.21 757.81 153.78 747.4 155.39 736.98 156.95 726.57 158.39 716.16 159.64 705.75 160.63 695.34 161.31 684.93 161.66 674.51 161.65 664.1 161.29 653.69 160.59 643.28 159.58 632.87 158.33 622.46 156.88 612.04 155.32 601.63 153.71 591.22 152.14 580.81 150.69 570.4 149.42 559.98 148.41 549.57 147.7 539.16 147.32 528.75 147.3 518.34 147.64 507.93 148.31 497.51 149.29 487.1 150.53 476.69 151.97 466.28 153.53 455.87 155.13 445.46 156.71 435.04 158.17 424.63 159.45 414.22 160.49 403.81 161.23 393.4 161.63 382.99 161.68 372.57 161.37 362.16 160.72 351.75 159.76 341.34 158.54 330.93 157.12 320.52 155.57 310.11 153.97 299.69 152.39 289.28 150.91 278.87 149.61 268.46 148.55 258.05 147.79 247.64 147.36 237.22 147.28 226.81 147.56 216.4 148.18 205.99 149.12 195.58 150.32 185.17 151.73 174.75 153.27 164.34 154.87 153.93 156.46 143.52 157.95 133.11 159.26 122.7 160.34 112.29 161.13 101.87 161.59 91.46 169.93 86.39 178.17 80.5 186.35 73.87 194.46 66.63 202.54 58.93 210.61 50.98 218.66 42.96 226.74 35.08 234.85 27.51 243.01 20.42 251.23 13.91 259.52 8.07 267.9 2.93 276.37 -1.52 284.94 -5.35 293.61 -8.67 302.39 -11.59 311.26 -14.28 320.22 -16.88 329.28 -19.57 338.41 -22.48 347.61 -25.76 356.87 -29.49 366.17 -33.75 375.49 -38.56 384.81 -43.92 394.13 -49.76 403.41 -56.03 412.65 -62.61 421.82 -69.39 430.91 -76.24 439.9 -83.05 448.77 -89.68 457.52 -96.06 466.13 -102.09 474.59 -107.73 482.9 -112.97 491.05 -117.81 499.04 -122.28 506.88 -126.45 522.06 -134.18 536.85 -141.76 551.15 -149.91 565.28 -158.75 572.31 -163.62 579.35 -168.76 586.43 -174.12 593.59 -179.66 600.85 -185.33 608.24 -191.05 615.78 -196.78 623.49 -202.45 631.41 -208.03 639.55 -213.48 647.93 -218.78 656.57 -223.92 665.48 -228.93 674.65 -233.81 688.98 -240.99 693.86 -243.37" stroke-dasharray="2 1" transform="rotate(26.185185185185183, 711, 400)" opacity="0.75"></path><path d="M688.99 -213.79Q696.96 -208.86 705.2 -203.77 713.71 -198.53 722.5 -193.15 731.57 -187.67 740.92 -182.13 750.55 -176.58 760.45 -171.07 770.61 -165.67 781.01 -160.42 791.64 -155.37 802.47 -150.56 813.47 -146.02 824.63 -141.74 835.9 -137.72 847.26 -133.92 858.67 -130.29 870.08 -126.78 881.48 -123.3 892.8 -119.77 904.03 -116.11 915.11 -112.24 926 -108.08 936.68 -103.58 947.11 -98.7 957.26 -93.43 967.08 -87.77 976.57 -81.77 985.69 -75.47 994.43 -68.96 1002.77 -62.35 1010.69 -55.73 1018.21 -49.23 1025.3 -42.95 1038.08 -31.71 1049.7 -21.89 1066.24 -10.34 1076.84 -3.71 1090.37 6.51 1100.3 16.11 1109.34 27.48 1119.28 40.63 1124.89 48.02 1130.92 55.67 1137.43 63.41 1144.43 71.07 1151.94 78.46 1159.99 85.42 1168.59 91.81 1177.74 97.51 1187.45 102.45 1197.71 106.6 1203.89 116.49 1211.73 126.39 1220.9 136.29 1230.96 146.18 1241.48 156.08 1251.98 165.98 1261.98 175.87 1271.04 185.77 1278.75 195.67 1284.76 205.56 1288.8 215.46 1290.69 225.36 1290.34 235.25 1287.77 245.15 1283.1 255.05 1276.54 264.94 1268.38 274.84 1258.98 284.73 1248.78 294.63 1238.22 304.53 1227.79 314.42 1217.96 324.32 1209.16 334.22 1201.79 344.11 1196.19 354.01 1192.6 363.91 1191.19 373.8 1192.02 383.7 1195.05 393.6 1200.15 403.49 1207.09 413.39 1215.55 423.29 1225.16 433.18 1235.48 443.08 1246.05 452.97 1256.39 462.87 1266.03 472.77 1274.56 482.66 1281.57 492.56 1286.75 502.46 1289.88 512.35 1290.81 522.25 1289.5 532.15 1286.01 542.04 1280.49 551.94 1273.19 561.84 1264.45 571.73 1254.65 581.63 1244.24 591.52 1233.68 601.42 1223.45 611.32 1214.01 621.21 1205.78 631.11 1199.14 641.01 1194.38 650.9 1191.72 660.8 1191.27 670.69 1193.06 680.59 1197.01 690.49 1202.94 700.38 1210.57 710.28 1219.58 720.18 1233.28 738.6 1233.83 752.14 1220.36 751.58 1208.97 744 1197.23 736.17 1184.03 731.27 1176.55 731.65 1168.56 734.15 1160.08 738.92 1151.1 746.01 1141.66 755.27 1131.76 766.48 1121.45 779.26 1110.75 793.16 1099.7 807.64 1088.33 822.13 1076.69 836.06 1064.83 848.88 1052.79 860.1 1040.62 869.32 1028.36 876.27 1016.07 880.79 1003.79 882.88 991.57 882.68 979.45 880.47 967.48 876.63 955.7 871.68 944.13 866.17 932.82 860.72 921.8 855.93 911.09 852.37 900.7 850.56 890.67 850.89 880.99 853.65 871.68 858.98 862.75 866.86 854.18 877.14 845.97 889.51 838.11 903.53 830.58 918.67 823.38 934.32 816.47 949.85 809.84 964.6 803.44 978 797.26 989.51 791.27 998.72 771.29 1006.89 757.24 1000.76 745.77 987.99 733.98 975.84 727.82 971.76 721.48 969.7 710.93 960.89 700.36 954.83 689.82 951.58 679.33 951.03 668.91 952.91 658.59 956.81 648.4 962.2 638.34 968.47 628.44 974.97 618.72 981.02 609.18 986.01 599.84 989.34 590.69 990.58 581.74 989.36 573 985.52 564.45 979 556.09 969.94 547.92 958.6 539.92 945.39 532.08 930.83 524.38 915.49 516.81 900.01 509.35 885.01 501.99 871.1 494.69 858.8 487.45 848.54 473.05 836.49 458.64 831.88 444.04 837.5 429.23 846.75 413.98 856.36 398.42 862.79 390.45 862.97 382.38 860.9 374.2 856.45 365.92 849.62 357.54 840.54 349.08 829.49 340.54 816.86 331.94 803.12 323.3 788.81 314.61 774.5 305.9 760.74 297.18 748.06 288.47 736.91 279.78 727.66 271.13 720.55 262.52 715.7 245.54 713.48 228.81 716.62 220.6 720.36 212.5 724.58 189.48 728.9 183.49 716.15 184.54 706.3 185.43 696.44 186.13 686.58 186.59 676.73 186.8 666.87 186.75 657.02 186.44 647.16 185.88 637.3 185.1 627.45 184.14 617.59 183.04 607.74 181.84 597.88 180.61 588.02 179.39 578.17 178.24 568.31 177.22 558.46 176.37 548.6 175.72 538.74 175.31 528.89 175.16 519.03 175.27 509.18 175.63 499.32 176.24 489.46 177.06 479.61 178.06 469.75 179.19 459.9 180.39 450.04 181.63 440.18 182.84 430.33 183.96 420.47 184.95 410.62 185.76 400.76 186.36 390.9 186.71 381.05 186.81 371.19 186.64 361.33 186.22 351.48 185.57 341.62 184.71 331.77 183.68 321.91 182.53 312.05 181.31 302.2 180.08 292.34 178.88 282.49 177.78 272.63 176.83 262.77 176.06 252.92 175.52 243.06 175.22 233.2 175.18 223.35 175.4 213.49 175.87 203.64 176.57 193.78 177.47 183.92 178.53 174.07 179.7 164.21 180.93 154.36 182.16 144.5 183.33 134.64 184.41 124.79 185.32 114.93 186.05 105.07 194.21 97.98 202.27 90.43 210.26 82.6 218.18 74.69 226.04 66.87 233.87 59.32 241.67 52.21 249.45 45.65 257.25 39.73 265.06 34.51 280.83 26.41 296.77 20.04 313.1 15.36 329.7 10.81 338.16 8.24 346.71 5.29 355.36 1.88 364.09 -2.06 372.9 -6.58 381.79 -11.65 390.73 -17.25 399.71 -23.3 408.74 -29.71 417.78 -36.37 426.82 -43.16 435.85 -49.95 444.85 -56.62 453.8 -63.06 462.69 -69.2 471.49 -74.95 480.2 -80.28 488.8 -85.18 497.28 -89.65 505.61 -93.74 521.76 -100.96 537.44 -107.72 552.3 -114.62 566.69 -122.07 580.39 -130.89 593.75 -140.6 606.73 -151.49 619.6 -162.77 632.57 -174.07 645.73 -185.06 659.5 -195.22 673.77 -204.83 685.12 -211.58 688.99 -213.79" stroke-dasharray="1 1" transform="rotate(29.925925925925924, 711, 400)" opacity="0.72"></path><path d="M693.9 -184.2Q702.96 -179.37 712.24 -174.35 721.73 -169.15 731.42 -163.81 741.29 -158.36 751.34 -152.85 761.53 -147.33 771.86 -141.87 782.28 -136.52 792.79 -131.34 803.34 -126.38 813.92 -121.68 824.49 -117.27 835.02 -113.15 845.48 -109.33 855.85 -105.77 866.08 -102.44 876.15 -99.27 886.03 -96.21 895.69 -93.15 905.11 -90.03 914.26 -86.76 923.13 -83.26 931.69 -79.45 939.93 -75.29 947.83 -70.73 955.39 -65.75 962.61 -60.37 969.47 -54.6 975.99 -48.52 987.87 -35.65 998.8 -22.61 1008.36 -10.37 1017.26 0.78 1031.28 14.49 1041.12 21.85 1056.21 29.31 1068.1 35.46 1079.48 43.07 1092.02 52.56 1099.03 58.42 1106.48 64.87 1114.4 71.81 1122.79 79.12 1131.66 86.67 1140.99 94.28 1150.79 101.81 1161.04 109.08 1171.73 115.93 1182.83 122.24 1190.82 131.63 1199.77 141.03 1209.32 150.43 1219.08 159.83 1228.65 169.22 1237.65 178.62 1245.71 188.02 1252.5 197.41 1257.75 206.81 1261.24 216.21 1262.83 225.6 1262.46 235 1260.14 244.4 1255.97 253.79 1250.11 263.19 1242.81 272.59 1234.36 281.98 1225.1 291.38 1215.4 300.78 1205.68 310.17 1196.31 319.57 1187.68 328.97 1180.13 338.37 1173.99 347.76 1169.49 357.16 1166.81 366.56 1166.08 375.95 1167.31 385.35 1170.45 394.75 1175.39 404.14 1181.91 413.54 1189.76 422.94 1198.61 432.33 1208.11 441.73 1217.86 451.13 1227.48 460.53 1236.57 469.92 1244.77 479.32 1251.73 488.72 1257.19 498.11 1260.91 507.51 1262.74 516.91 1262.62 526.3 1260.54 535.7 1256.59 545.1 1250.93 554.5 1243.79 563.89 1235.46 573.29 1226.28 582.69 1216.62 592.08 1206.88 601.48 1197.44 610.88 1188.7 620.27 1181 629.67 1174.67 639.07 1169.95 648.47 1167.04 657.86 1166.06 667.26 1167.05 676.66 1169.96 686.05 1174.68 695.45 1181.02 704.85 1165.81 705.09 1152.8 707.28 1147.32 713.04 1141.43 720.78 1135.12 730.34 1128.38 741.48 1121.21 753.84 1113.62 767.02 1105.6 780.58 1097.16 794.01 1088.33 806.86 1079.11 818.67 1069.53 829.03 1059.62 837.63 1049.4 844.23 1038.91 848.71 1028.18 851.05 1017.24 851.35 1006.13 849.82 994.88 846.77 983.55 842.6 972.16 837.76 960.76 832.74 949.37 828.07 938.05 824.24 926.82 821.7 915.72 820.84 904.78 821.97 894.02 825.29 883.48 830.87 873.18 838.68 863.14 848.57 853.37 860.26 843.89 873.38 834.7 887.49 825.82 902.09 817.25 916.62 808.98 930.57 801.02 943.43 793.35 954.73 785.97 964.1 778.86 971.28 765.49 977.38 752.77 976.73 740.89 967.63 729.37 956.14 718.17 946.11 706.99 940.11 697.08 931.78 687.31 925.86 677.7 922.42 668.26 921.38 659 922.54 649.94 925.57 641.08 930.07 632.42 935.54 623.96 941.44 615.71 947.21 599.89 955.4 584.63 958.82 577.3 956.92 570.11 952.68 563.06 946.1 556.13 937.31 549.29 926.55 542.54 914.17 535.86 900.59 529.21 886.31 522.6 871.85 515.99 857.73 509.38 844.47 502.74 832.52 496.06 822.27 489.32 813.99 475.59 805.1 461.59 802.62 447.07 808.56 432.22 817.25 416.83 825.74 401.13 831.28 384.99 828.45 368.64 819.46 360.37 811.4 352.08 801.53 343.76 790.17 335.43 777.69 327.1 764.51 318.8 751.11 310.52 737.96 302.28 725.5 294.1 714.17 285.97 704.3 277.92 696.16 269.93 689.94 254.25 684.33 238.83 684.05 216.83 688.95 210.55 678.84 211.13 669.69 211.56 660.55 211.83 651.4 211.92 642.26 211.83 633.11 211.56 623.97 211.13 614.82 210.55 605.68 209.85 596.53 209.05 587.39 208.18 578.24 207.29 569.09 206.41 559.95 205.57 550.8 204.8 541.66 204.15 532.51 203.63 523.37 203.27 514.22 203.08 505.08 203.07 495.93 203.24 486.79 203.58 477.64 204.08 468.49 204.71 459.35 205.46 450.2 206.3 441.06 207.18 431.91 208.07 422.77 208.94 413.62 209.75 404.48 210.47 395.33 211.07 386.19 211.52 377.04 211.81 367.89 211.92 358.75 211.85 349.6 211.61 340.46 211.19 331.31 210.63 322.17 209.94 313.02 209.15 303.88 208.29 294.73 207.4 285.59 206.51 276.44 205.67 267.3 204.89 258.15 204.22 249.01 203.69 239.86 203.31 230.71 203.09 221.57 203.06 212.42 203.21 203.28 203.52 194.13 204.01 184.99 204.63 175.84 205.36 166.7 206.19 157.55 207.07 148.41 207.96 139.26 208.83 130.12 209.65 120.97 210.38 111.83 218.27 104.05 226.08 96.38 233.8 88.99 241.45 82.03 249.04 75.61 256.58 69.82 271.54 60.62 286.46 53.39 301.42 48.67 316.48 44.74 331.82 40.7 347.37 35.78 355.29 32.55 363.3 28.78 371.41 24.43 379.6 19.52 387.89 14.09 396.26 8.19 404.72 1.93 413.26 -4.6 421.86 -11.29 430.52 -18.01 439.24 -24.65 447.99 -31.09 456.76 -37.24 465.54 -43.03 474.32 -48.39 483.07 -53.31 491.78 -57.78 500.45 -61.83 509.04 -65.49 517.55 -68.83 534.19 -74.84 550.45 -80.68 565.98 -87.07 581.03 -94.23 595.24 -102.96 608.96 -112.64 621.9 -123.51 634.45 -134.74 646.49 -145.94 658.32 -156.76 670.03 -166.62 681.82 -175.84 690.85 -182.15 693.9 -184.2" stroke-dasharray="5 3" transform="rotate(33.666666666666664, 711, 400)" opacity="0.68"></path><path d="M706.41 -154.62Q725.48 -144.97 744.86 -134.58 764.38 -123.73 783.87 -112.84 803.12 -102.41 821.95 -92.87 840.17 -84.51 857.62 -77.4 874.13 -71.36 889.61 -65.95 903.97 -60.58 917.18 -54.6 929.25 -47.41 940.23 -38.64 950.22 -28.2 959.39 -16.33 967.91 -3.6 976 9.24 983.92 21.35 991.92 31.98 1000.29 40.64 1009.29 47.21 1019.18 51.95 1030.18 55.54 1042.49 58.89 1056.26 63.03 1071.58 68.88 1088.5 77.06 1107 87.78 1127 100.74 1148.35 115.2 1170.86 130.08 1188.45 147.54 1205.97 164.99 1220.89 182.44 1231.06 199.9 1235 217.35 1232.15 234.81 1222.91 252.26 1208.63 269.71 1191.36 287.17 1173.6 304.62 1157.93 322.08 1146.59 339.53 1141.24 356.98 1142.65 374.44 1150.6 391.89 1163.96 409.34 1180.79 426.8 1198.67 444.25 1214.99 461.7 1227.42 479.16 1234.14 496.61 1234.2 514.06 1227.57 531.52 1215.23 548.97 1198.94 566.43 1181.08 583.88 1164.21 601.33 1150.78 618.79 1142.72 636.24 1141.21 653.69 1143.09 674.33 1131.24 673.93 1124.41 682.52 1116.9 697.96 1108.44 719.08 1098.85 743.57 1087.95 768.46 1075.66 790.65 1061.92 807.49 1046.75 817.33 1030.21 819.8 1012.43 815.97 993.56 808.1 973.78 799.27 953.34 792.8 932.46 791.6 911.38 797.62 890.36 811.48 869.61 832.3 849.36 857.84 829.77 884.96 810.99 910.14 793.13 930.19 776.26 942.86 760.4 947.25 745.52 944.05 731.58 935.4 718.47 924.51 706.09 915.06 694.28 910.53 677.64 896.91 661.81 891.87 646.79 894.62 632.52 902.9 618.92 913.47 605.89 922.69 593.3 927.22 581.02 924.67 568.91 914 556.84 895.72 544.68 871.77 532.31 845.11 519.64 819.18 506.58 797.21 493.1 781.68 479.16 773.76 464.76 773.22 449.94 778.41 434.73 786.67 419.21 794.76 403.44 799.56 387.53 798.6 371.55 790.54 355.61 775.39 339.78 754.51 324.14 730.29 308.74 705.73 293.62 683.82 278.79 667.03 264.26 656.79 249.99 653.3 235.94 655.47 236.67 638.62 237.01 621.77 236.91 604.93 236.39 588.08 235.52 571.23 234.43 554.38 233.28 537.53 232.22 520.69 231.42 503.84 231 486.99 231 470.14 231.43 453.29 232.24 436.44 233.29 419.6 234.45 402.75 235.54 385.9 236.4 369.05 236.92 352.2 237.01 335.35 236.66 318.51 235.93 301.66 234.92 284.81 233.77 267.96 232.65 251.11 231.73 234.26 231.13 217.42 230.94 200.57 231.2 183.72 231.86 166.87 232.82 150.02 233.96 133.17 235.09 116.32 250.1 103.63 264.81 93.42 279.27 85.87 293.53 80.68 307.67 77.08 321.77 74.08 335.92 70.59 350.19 65.69 364.68 58.75 379.43 49.57 394.52 38.37 409.96 25.76 425.78 12.56 441.95 -0.32 458.44 -12.13 475.2 -22.32 492.15 -30.7 509.18 -37.43 526.2 -42.97 543.08 -47.98 559.71 -53.18 575.97 -59.19 591.76 -66.43 606.98 -75.06 621.58 -84.96 635.5 -95.77 648.74 -106.98 661.31 -118.07 673.27 -128.58 684.69 -138.2 701.06 -150.73 706.41 -154.62" stroke-dasharray="5 2" transform="rotate(37.407407407407405, 711, 400)" opacity="0.65"></path><path d="M720.96 -125.03Q738.85 -115.64 756.5 -105.45 773.76 -94.77 790.49 -84.02 806.57 -73.68 821.88 -64.2 836.34 -55.9 849.88 -48.91 862.47 -43.13 874.13 -38.22 884.89 -33.68 894.82 -28.87 904.03 -23.2 912.67 -16.16 920.89 -7.46 928.89 2.87 936.87 14.58 945.04 27.09 953.62 39.68 962.81 51.57 972.82 62.04 983.81 70.63 995.93 77.13 1009.29 81.75 1023.97 85 1039.98 87.66 1057.32 90.68 1075.91 94.95 1095.65 101.21 1116.37 109.87 1137.9 120.94 1159.99 134.01 1176.21 150.03 1190.54 166.05 1201.11 182.07 1206.56 198.1 1206.2 214.12 1200.07 230.14 1188.95 246.16 1174.29 262.18 1157.98 278.2 1142.12 294.22 1128.76 310.24 1119.62 326.26 1115.89 342.28 1118.04 358.3 1125.8 374.32 1138.17 390.34 1153.55 406.36 1169.95 422.38 1185.26 438.41 1197.5 454.43 1205.09 470.45 1207.05 486.47 1203.13 502.49 1193.84 518.51 1180.37 534.53 1164.46 550.55 1148.17 566.57 1133.59 582.59 1122.62 598.61 1116.66 614.64 1114.95 636.74 1105.62 643.08 1098.53 648.88 1091.87 660.71 1085.4 678.05 1078.85 699.41 1071.97 722.6 1064.54 745.08 1056.36 764.4 1047.25 778.59 1037.09 786.52 1025.78 788.14 1013.28 784.46 999.58 777.4 984.71 769.49 968.74 763.48 951.8 761.78 934 766.15 915.52 777.32 896.54 794.88 877.24 817.31 857.81 842.24 838.45 866.86 819.33 888.34 800.6 904.37 782.43 913.51 764.9 915.49 748.12 911.27 732.13 902.85 716.95 893 702.59 884.76 688.99 880.94 675.89 867.99 663.43 862.5 651.52 863.94 640.04 870.59 628.86 879.91 617.86 888.91 606.91 894.74 595.89 895.09 584.69 888.61 573.21 875.13 561.37 855.64 549.12 832.15 536.41 807.29 523.23 783.89 509.59 764.5 495.51 750.95 481.05 744.05 466.25 743.51 451.19 747.94 435.94 755.17 420.6 762.57 405.25 767.53 389.95 767.88 374.79 762.29 359.82 750.42 345.08 733 330.6 711.69 316.39 688.75 302.45 666.71 288.75 647.88 275.25 634.01 261.91 625.97 262.11 610.32 262.11 594.66 261.89 579 261.49 563.34 260.97 547.68 260.38 532.03 259.8 516.37 259.31 500.71 258.98 485.05 258.84 469.4 258.91 453.74 259.18 438.08 259.62 422.42 260.18 406.76 260.77 391.11 261.33 375.45 261.78 359.79 262.06 344.13 262.13 328.48 262 312.82 261.67 297.16 261.19 281.5 260.61 265.85 260.02 250.19 259.49 234.53 259.09 218.87 258.87 203.22 258.85 187.56 259.05 171.9 259.43 156.25 259.95 140.59 260.54 124.93 274.76 117.19 288.71 111.86 302.41 108.38 315.9 105.88 329.23 103.4 342.45 99.98 355.64 94.89 368.87 87.68 382.21 78.3 395.73 67.06 409.51 54.57 423.59 41.62 438.01 29.04 452.81 17.56 467.99 7.67 483.53 -0.4 499.39 -6.78 515.54 -11.86 531.9 -16.21 548.38 -20.53 564.89 -25.44 581.32 -31.45 597.56 -38.84 613.5 -47.64 629.04 -57.63 644.08 -68.42 658.54 -79.49 672.37 -90.32 685.53 -100.49 698 -109.69 715.38 -121.43 720.96 -125.03" stroke-dasharray="4 2" transform="rotate(41.148148148148145, 711, 400)" opacity="0.61"></path><path d="M731.07 -95.44Q746.22 -86.34 760.8 -76.42 774.72 -65.97 787.93 -55.4 800.39 -45.17 812.09 -35.73 823.03 -27.42 833.25 -20.41 842.81 -14.7 851.79 -10.06 860.31 -6.08 868.5 -2.22 876.49 2.09 884.45 7.44 892.54 14.22 900.92 22.65 909.76 32.7 919.22 44.07 929.44 56.25 940.54 68.57 952.63 80.31 965.77 90.82 980.02 99.58 995.37 106.35 1011.81 111.18 1029.27 114.42 1047.67 116.69 1066.88 118.78 1086.74 121.55 1107.08 125.76 1127.7 132.01 1148.37 140.6 1161.67 155.37 1171.92 170.14 1177.94 184.91 1179.04 199.67 1175.1 214.44 1166.56 229.21 1154.41 243.99 1140.04 258.76 1125.08 273.53 1111.27 288.3 1100.16 303.07 1093.05 317.84 1090.73 332.61 1093.48 347.38 1100.98 362.15 1112.38 376.92 1126.36 391.69 1141.33 406.46 1155.58 421.23 1167.46 436 1175.63 450.77 1179.15 465.54 1177.6 480.31 1171.18 495.08 1160.62 509.85 1147.12 524.62 1132.23 539.39 1117.66 554.16 1105.07 568.93 1095.9 583.7 1091.21 598.47 1091.53 613.24 1080.99 617.97 1071.53 627.86 1063.02 642.67 1055.29 661.39 1048.14 682.41 1041.39 703.74 1034.82 723.31 1028.24 739.3 1013.96 753.32 998.02 752.31 988.74 745.81 978.55 738.85 967.39 733.65 955.24 732.16 942.11 735.83 928.03 745.34 913.07 760.5 897.31 780.24 880.87 802.8 863.87 825.98 846.44 847.44 828.75 865.05 810.92 877.26 793.12 883.31 775.48 883.35 758.12 878.45 741.15 870.43 724.68 861.63 708.78 854.52 693.49 851.35 683.23 839.08 673.21 833.26 663.31 833.54 653.43 838.63 643.46 846.59 633.28 855.04 622.82 861.58 612 864.12 600.76 861.19 589.07 852.17 576.91 837.34 564.28 817.86 551.19 795.56 537.67 772.66 523.78 751.45 509.57 733.91 495.11 721.48 480.46 714.79 465.72 713.61 450.95 716.89 436.22 722.94 421.6 729.67 407.14 734.94 392.88 736.83 378.87 733.98 365.11 725.75 351.61 712.3 338.36 694.59 325.34 674.19 312.51 653.03 299.83 633.14 287.24 616.32 287.24 601.5 287.22 586.68 287.16 571.86 287.09 557.04 287 542.21 286.91 527.39 286.83 512.57 286.77 497.75 286.73 482.93 286.73 468.1 286.75 453.28 286.79 438.46 286.86 423.64 286.95 408.82 287.04 393.99 287.12 379.17 287.19 364.35 287.23 349.53 287.25 334.71 287.23 319.88 287.19 305.06 287.12 290.24 287.04 275.42 286.96 260.6 286.87 245.77 286.8 230.95 286.75 216.13 286.73 201.31 286.73 186.49 286.77 171.67 286.83 156.84 286.91 142.02 300.29 138.85 313.45 136.8 326.37 135 339.07 132.57 351.57 128.77 363.93 123.07 376.17 115.25 388.38 105.43 400.59 94.02 412.9 81.63 425.34 69.01 438 56.92 450.93 45.98 464.18 36.63 477.77 29.06 491.75 23.16 506.1 18.59 520.84 14.84 535.92 11.27 551.32 7.27 566.97 2.32 582.8 -3.91 598.74 -11.59 614.68 -20.61 630.54 -30.7 646.2 -41.41 661.57 -52.25 676.56 -62.74 691.07 -72.48 705.03 -81.2 724.72 -92.13 731.07 -95.44" stroke-dasharray="5 5" transform="rotate(44.888888888888886, 711, 400)" opacity="0.58"></path><path d="M732.25 -65.85Q744.1 -57.09 755.34 -47.49 765.97 -37.33 776.02 -27 785.52 -16.92 794.52 -7.53 803.09 0.83 811.34 7.95 819.35 13.75 827.25 18.35 835.14 22.05 843.17 25.27 851.45 28.55 860.12 32.4 869.29 37.32 879.07 43.67 889.56 51.63 900.84 61.15 912.98 71.99 926 83.7 939.94 95.7 954.78 107.34 970.48 118 987 127.17 1004.24 134.51 1022.11 139.94 1040.47 143.62 1059.19 145.96 1078.11 147.57 1097.05 149.17 1115.85 151.52 1134.34 155.3 1143.75 169.14 1149.61 182.99 1151.33 196.83 1148.73 210.68 1142.08 224.52 1132.04 238.37 1119.63 252.21 1106.1 266.06 1092.81 279.9 1081.09 293.75 1072.14 307.59 1066.85 321.43 1065.75 335.28 1068.96 349.12 1076.15 362.97 1086.59 376.81 1099.25 390.66 1112.83 404.5 1125.98 418.35 1137.36 432.19 1145.83 446.04 1150.55 459.88 1151.02 473.73 1147.21 487.57 1139.5 501.42 1128.66 515.26 1115.8 529.11 1102.19 542.95 1089.22 556.79 1078.19 570.64 1070.21 584.48 1066.09 598.33 1053.85 611.86 1042.68 628.79 1032.51 647.88 1023.26 667.58 1014.81 686.22 1007.03 702.25 993.04 719.79 979.72 723.88 973.05 719.51 966.15 713.49 950.81 705.11 933.68 706.38 923.88 715.07 913.3 728.62 901.91 746.24 889.72 766.6 876.75 787.99 863.06 808.52 848.71 826.41 833.77 840.19 818.35 848.94 802.55 852.36 786.46 850.89 770.22 845.62 753.92 838.15 737.68 830.39 721.6 824.34 705.77 821.76 696.86 810.2 687.79 804.16 678.46 803.41 668.82 807.05 658.79 813.6 648.34 821.22 637.43 827.96 626.05 831.99 614.19 831.89 601.88 826.78 589.15 816.46 576.02 801.41 562.56 782.73 548.82 761.98 534.87 740.98 520.77 721.53 506.6 705.24 492.42 693.25 478.29 686.14 464.27 683.82 450.41 685.59 436.75 690.22 423.31 696.12 410.13 701.55 397.2 704.86 384.53 704.72 372.09 700.25 359.87 691.16 347.83 677.78 335.93 660.98 324.12 642.08 312.37 622.66 312.48 608.43 312.69 594.19 312.98 579.96 313.32 565.73 313.68 551.49 314.02 537.26 314.3 523.02 314.51 508.79 314.61 494.56 314.59 480.32 314.47 466.09 314.25 451.85 313.95 437.62 313.6 423.38 313.24 409.15 312.91 394.92 312.63 380.68 312.44 366.45 312.36 352.21 312.39 337.98 312.53 323.74 312.76 309.51 313.07 295.28 313.42 281.04 313.78 266.81 314.11 252.57 314.37 238.34 314.55 224.1 314.62 209.87 314.57 195.64 314.42 181.4 314.17 167.17 326.74 165.91 339.11 164.12 351.27 161.11 363.21 156.38 374.94 149.66 386.48 140.98 397.87 130.59 409.13 118.97 420.32 106.76 431.5 94.63 442.7 83.23 454.01 73.09 465.46 64.54 477.13 57.71 489.06 52.47 501.3 48.51 513.88 45.35 526.84 42.43 540.18 39.18 553.9 35.11 568 29.84 582.45 23.19 597.2 15.16 612.21 5.91 627.42 -4.19 642.74 -14.74 658.09 -25.26 673.39 -35.31 688.55 -44.54 703.47 -52.73 725.15 -62.83 732.25 -65.85" stroke-dasharray="6 5" transform="rotate(48.629629629629626, 711, 400)" opacity="0.54"></path><path d="M723.97 -36.26Q733.07 -27.88 741.78 -18.65 750.15 -8.85 758.25 1.17 766.14 11.04 773.92 20.36 781.68 28.78 789.49 36.06 797.47 42.07 805.71 46.84 814.3 50.53 823.32 53.46 832.87 56.05 843 58.77 853.78 62.1 865.26 66.47 877.45 72.19 890.38 79.43 904.04 88.18 918.41 98.26 933.44 109.32 949.08 120.87 965.26 132.35 981.88 143.2 998.83 152.9 1016.01 161.06 1033.29 167.46 1050.55 172.06 1067.64 175.07 1084.43 176.87 1100.79 177.99 1116.61 179.07 1121.79 192.26 1123.47 205.44 1121.51 218.63 1116.08 231.82 1107.65 245.01 1096.97 258.2 1084.97 271.38 1072.72 284.57 1061.27 297.76 1051.65 310.95 1044.7 324.14 1041.02 337.32 1040.94 350.51 1044.46 363.7 1051.29 376.89 1060.81 390.08 1072.19 403.27 1084.44 416.45 1096.47 429.64 1107.23 442.83 1115.77 456.02 1121.34 469.21 1123.46 482.4 1121.94 495.58 1116.9 508.77 1108.8 521.96 1098.35 535.15 1086.45 548.34 1074.17 561.53 1062.57 574.71 1052.68 587.9 1045.37 601.09 1031.87 618.66 1019.28 636.66 1007.6 653.77 996.8 668.77 986.84 680.67 977.65 688.81 961.53 691.85 946.91 686.06 933.63 676.89 920.45 673.52 913.62 677.79 906.5 686.31 898.98 698.9 891 714.95 882.47 733.41 873.36 752.96 863.62 772.1 853.24 789.4 842.22 803.59 830.57 813.77 818.31 819.48 805.49 820.78 792.16 818.23 778.39 812.86 764.25 806.03 749.81 799.3 735.16 794.22 720.38 792.18 711.3 781.34 701.8 775.17 691.85 773.56 681.45 775.86 670.58 781 659.26 787.58 647.5 794.07 635.34 798.96 622.81 800.94 609.96 799.05 596.84 792.79 583.52 782.17 570.05 767.7 556.49 750.32 542.9 731.28 529.35 712.04 515.89 694.02 502.56 678.51 489.4 666.48 476.45 658.5 463.73 654.66 451.26 654.58 439.05 657.44 427.09 662.11 415.37 667.26 403.87 671.53 392.57 673.68 381.43 672.72 370.42 668.04 359.5 659.47 348.63 647.28 337.76 632.15 338.2 618.49 338.8 604.83 339.51 591.17 340.26 577.51 340.98 563.84 341.61 550.18 342.11 536.52 342.41 522.86 342.51 509.2 342.38 495.54 342.04 481.88 341.52 468.22 340.86 454.56 340.13 440.9 339.39 427.24 338.7 413.58 338.12 399.92 337.7 386.26 337.49 372.6 337.49 358.94 337.72 345.28 338.14 331.62 338.73 317.96 339.42 304.3 340.17 290.64 340.9 276.98 341.54 263.32 342.06 249.66 342.39 236 342.51 222.34 342.4 208.68 342.09 195.02 353.91 192.36 365.55 188.07 377.01 181.92 388.26 173.91 399.3 164.25 410.13 153.32 420.78 141.66 431.25 129.84 441.58 118.47 451.79 108.06 461.95 99.01 472.08 91.53 482.24 85.67 492.48 81.27 502.86 78.01 513.42 75.46 524.22 73.13 535.29 70.5 546.69 67.12 558.43 62.63 570.54 56.85 583.03 49.7 595.91 41.3 609.16 31.91 622.76 21.87 636.69 11.6 650.89 1.51 665.32 -8 679.92 -16.66 694.61 -24.27 716.65 -33.52 723.97 -36.26" stroke-dasharray="5 5" transform="rotate(52.37037037037037, 711, 400)" opacity="0.51"></path><path d="M709.92 -6.68Q717.57 1.28 725.14 10.07 732.7 19.45 740.33 29.11 748.09 38.7 756.06 47.89 764.29 56.33 772.87 63.79 781.84 70.07 791.27 75.15 801.2 79.08 811.66 82.05 822.69 84.37 834.3 86.41 846.5 88.58 859.27 91.31 872.59 94.97 886.44 99.86 900.76 106.14 915.51 113.87 930.61 122.92 945.98 133.06 961.55 143.92 977.21 155.05 992.88 165.95 1008.45 176.14 1023.82 185.2 1038.89 192.8 1053.58 198.77 1067.78 203.08 1081.41 205.88 1094.4 207.47 1095.56 220.07 1093.68 232.67 1088.91 245.27 1081.6 257.87 1072.32 270.47 1061.75 283.07 1050.72 295.67 1040.04 308.27 1030.54 320.87 1022.93 333.47 1017.79 346.07 1015.51 358.67 1016.26 371.27 1019.98 383.87 1026.4 396.47 1035.02 409.07 1045.2 421.68 1056.16 434.28 1067.06 446.88 1077.09 459.48 1085.49 472.08 1091.6 484.68 1094.98 497.28 1095.37 509.88 1092.73 522.48 1087.27 535.08 1079.4 547.68 1069.72 560.28 1058.95 572.88 1047.93 585.48 1037.48 598.08 1028.4 610.68 1014.26 625.87 1000.8 639.11 988.05 649.67 976.04 657.06 964.76 661.14 954.21 662.06 944.35 660.31 935.16 656.66 918.77 648.2 903.81 643.25 896.96 645.09 890.33 650.33 883.85 659.13 877.4 671.26 870.92 686.18 864.31 703.06 857.5 720.84 850.41 738.38 842.98 754.54 835.15 768.32 826.89 778.91 818.15 785.85 808.92 789.02 799.18 788.67 788.93 785.41 778.19 780.18 766.97 774.07 755.31 768.33 743.24 764.15 730.81 762.59 720.63 752.49 710.02 746.3 698.99 743.97 687.57 745.08 675.79 748.85 663.69 754.27 651.32 760.16 638.73 765.33 625.96 768.65 613.09 769.2 600.15 766.35 587.21 759.8 574.31 749.64 561.49 736.3 548.81 720.53 536.3 703.29 523.99 685.71 511.9 668.91 500.05 653.92 488.45 641.6 477.1 632.51 466 626.89 455.14 624.64 444.5 625.32 434.05 628.21 423.77 632.38 413.64 636.78 403.61 640.36 393.65 642.16 383.72 641.42 373.8 637.63 363.84 630.59 364.73 617.7 365.75 604.81 366.82 591.93 367.87 579.04 368.82 566.16 369.59 553.27 370.12 540.38 370.38 527.5 370.34 514.61 370.01 501.73 369.41 488.84 368.59 475.95 367.61 463.07 366.55 450.18 365.48 437.3 364.49 424.41 363.64 411.52 363.02 398.64 362.65 385.75 362.58 372.86 362.8 359.98 363.31 347.09 364.05 334.2 364.98 321.32 366.02 308.43 367.1 295.55 368.13 282.66 369.03 269.77 369.75 256.89 370.21 244 370.4 231.11 370.28 218.23 381.41 212.1 392.39 204.28 403.22 194.96 413.87 184.5 424.32 173.34 434.57 161.99 444.62 150.96 454.47 140.73 464.13 131.66 473.63 124.01 482.97 117.86 492.21 113.18 501.36 109.76 510.47 107.28 519.57 105.36 528.73 103.54 537.98 101.39 547.36 98.51 556.93 94.61 566.72 89.48 576.78 83.07 587.15 75.44 597.84 66.77 608.88 57.34 620.3 47.51 632.08 37.63 644.24 28.09 656.76 19.19 669.62 11.17 682.8 4.18 703.08 -4.21 709.92 -6.68" stroke-dasharray="5 0" transform="rotate(56.111111111111114, 711, 400)" opacity="0.47"></path><path d="M696.34 22.89Q703.92 30.43 711.68 38.73 719.69 47.62 727.97 56.83 736.59 66.07 745.56 75.04 754.94 83.44 764.74 91.02 774.97 97.6 785.67 103.06 796.81 107.39 808.41 110.69 820.45 113.12 832.91 114.95 845.75 116.51 858.94 118.14 872.44 120.21 886.18 123.04 900.12 126.92 914.18 132.03 928.31 138.47 942.42 146.2 956.45 155.09 970.31 164.91 983.95 175.31 997.28 185.92 1010.24 196.31 1022.77 206.08 1034.8 214.86 1046.3 222.36 1057.21 228.41 1067.51 232.94 1065.32 244.81 1060.79 256.67 1054.2 268.54 1045.98 280.41 1036.66 292.28 1026.84 304.15 1017.17 316.01 1008.25 327.88 1000.69 339.75 994.95 351.62 991.41 363.49 990.3 375.35 991.7 387.22 995.51 399.09 1001.48 410.96 1009.24 422.82 1018.27 434.69 1027.99 446.56 1037.78 458.43 1047 470.29 1055.06 482.16 1061.43 494.03 1065.7 505.9 1067.6 517.76 1067.01 529.63 1063.95 541.5 1058.64 553.37 1051.4 565.23 1042.72 577.1 1033.15 588.97 1023.32 600.84 1013.84 612.7 999.77 621.16 986.12 626.94 972.94 629.99 960.29 630.5 948.19 628.91 936.66 625.79 925.72 621.89 915.35 618.03 905.57 615.02 896.33 613.63 887.62 614.48 879.41 618.02 871.63 624.47 864.26 633.81 857.22 645.77 850.46 659.84 843.92 675.35 837.52 691.46 831.22 707.31 824.93 722.02 818.59 734.82 812.16 745.08 798.62 755.03 784.3 756.16 776.6 752.55 768.53 747.63 760.09 742.3 751.25 737.5 742.03 734.14 732.42 733 721.18 723.65 709.66 717.54 697.9 714.65 685.95 714.71 673.84 717.19 661.64 721.38 649.38 726.42 637.11 731.39 624.88 735.38 612.72 737.58 600.67 737.34 588.78 734.24 577.06 728.07 565.55 718.91 554.26 707.09 543.2 693.16 532.39 677.82 521.82 661.91 511.5 646.29 501.42 631.8 491.56 619.15 481.9 608.92 472.43 601.45 463.11 596.85 453.93 594.98 444.85 595.5 435.85 597.83 426.89 601.28 417.94 605.05 408.98 608.33 396.09 604.55 393.56 586.87 394.87 575.03 396.06 563.2 397.05 551.36 397.78 539.52 398.2 527.68 398.28 515.84 398.02 504 397.43 492.17 396.56 480.33 395.45 468.49 394.19 456.65 392.85 444.81 391.51 432.97 390.28 421.13 389.21 409.3 388.39 397.46 387.87 385.62 387.68 373.78 387.83 361.94 388.32 350.1 389.1 338.26 390.14 326.43 391.36 314.59 392.69 302.75 394.04 290.91 395.31 279.07 396.44 267.23 397.34 255.39 397.97 243.55 398.26 231.71 408.75 222.4 419.13 212.18 429.39 201.46 439.5 190.67 449.46 180.24 459.23 170.55 468.81 161.92 478.2 154.57 487.39 148.6 496.38 143.99 505.19 140.62 513.82 138.24 530.58 135.18 547.02 131.98 555.13 129.42 563.23 125.89 571.37 121.21 579.58 115.35 587.9 108.33 596.38 100.32 605.05 91.52 613.95 82.23 623.1 72.75 632.55 63.42 642.32 54.53 652.42 46.33 662.86 39 673.67 32.66 690.59 25.1 696.34 22.89" stroke-dasharray="5 4" transform="rotate(59.85185185185185, 711, 400)" opacity="0.44"></path><path d="M689.28 52.48Q697.65 59.53 706.32 67.31 715.3 75.64 724.63 84.33 734.3 93.13 744.31 101.79 754.68 110.04 765.38 117.67 776.42 124.48 787.77 130.33 799.41 135.16 811.31 138.96 823.44 141.82 835.76 143.88 848.23 145.36 860.8 146.52 873.43 147.65 886.06 149.05 898.65 151 911.13 153.77 923.46 157.55 935.59 162.47 947.46 168.59 959.02 175.88 970.24 184.21 981.07 193.38 991.48 203.13 1001.43 213.14 1010.9 223.08 1019.88 232.61 1028.35 241.4 1036.3 249.19 1031.73 260.07 1025.57 270.96 1018.15 281.85 1009.88 292.74 1001.21 303.63 992.61 314.51 984.55 325.4 977.46 336.29 971.74 347.18 967.68 358.07 965.53 368.95 965.38 379.84 967.25 390.73 971.04 401.62 976.53 412.5 983.45 423.39 991.39 434.28 999.94 445.17 1008.63 456.05 1016.99 466.94 1024.56 477.83 1030.92 488.72 1035.74 499.6 1038.76 510.49 1039.8 521.38 1038.81 532.27 1035.85 543.15 1031.07 554.04 1024.74 564.93 1017.2 575.82 1008.86 586.7 1000.17 597.59 986.82 599.05 973.67 598.62 960.77 596.7 948.17 593.78 935.91 590.44 924.03 587.29 912.55 584.94 901.5 583.95 890.89 584.78 880.74 587.77 871.04 593.11 861.79 600.83 852.99 610.78 844.6 622.63 836.62 635.95 829.01 650.17 821.74 664.65 814.77 678.74 808.06 691.8 801.57 703.25 789.1 718.36 776.87 726.02 764.59 722.69 752.02 715.26 738.6 707.46 724.5 703.41 713.02 694.83 701.49 688.88 689.94 685.57 678.41 684.74 666.94 686.06 655.56 689.03 644.3 693.04 633.19 697.44 622.26 701.52 611.52 704.62 600.99 706.17 590.69 705.7 580.62 702.88 570.78 697.57 561.19 689.81 551.82 679.79 542.67 667.88 533.74 654.58 525 640.48 516.43 626.2 508.03 612.4 499.76 599.67 491.6 588.54 483.52 579.4 467.53 569.07 451.57 565.35 428.03 567.14 422.12 554.16 423.48 543.55 424.61 532.95 425.47 522.34 426 511.73 426.18 501.12 425.99 490.52 425.45 479.91 424.59 469.3 423.44 458.69 422.09 448.08 420.59 437.48 419.03 426.87 417.49 416.26 416.07 405.65 414.83 395.05 413.84 384.44 413.16 373.83 412.82 363.22 412.85 352.61 413.24 342.01 413.96 331.4 414.99 320.79 416.26 310.18 417.71 299.58 419.25 288.97 420.81 278.36 422.29 267.75 423.63 257.14 424.73 246.54 425.55 235.93 435.41 225.71 445.2 215.64 454.91 206.07 464.53 197.29 474.02 189.53 483.37 182.95 492.57 177.62 501.6 173.51 510.45 170.52 519.12 168.45 535.78 166.1 551.87 163.99 567.13 159.4 581.98 152.06 589.23 146.54 596.4 139.98 603.55 132.51 610.69 124.29 617.87 115.57 625.11 106.6 632.45 97.66 639.92 89 647.56 80.85 655.4 73.42 663.47 66.83 671.79 61.15 684.83 54.44 689.28 52.48" stroke-dasharray="4 1" transform="rotate(63.592592592592595, 711, 400)" opacity="0.40"></path><path d="M691.88 82.07Q701.07 88.61 710.52 95.81 720.23 103.53 730.18 111.63 740.36 119.89 750.76 128.13 761.35 136.12 772.12 143.67 783.03 150.6 794.07 156.77 805.19 162.08 816.37 166.47 827.57 169.94 838.76 172.56 849.9 174.43 860.96 175.71 871.89 176.61 882.66 177.34 893.23 178.14 903.58 179.26 913.67 180.92 923.47 183.33 932.95 186.63 942.09 190.94 950.88 196.31 959.29 202.72 967.32 210.09 974.95 218.29 982.2 227.13 989.05 236.38 995.52 245.78 1001.61 255.05 995.73 264.76 988.96 274.48 981.6 284.19 974 293.9 966.48 303.61 959.39 313.33 953.05 323.04 947.74 332.75 943.7 342.46 941.11 352.18 940.1 361.89 940.69 371.6 942.88 381.31 946.56 391.03 951.56 400.74 957.66 410.45 964.58 420.16 972.02 429.87 979.64 439.59 987.09 449.3 994.04 459.01 1000.18 468.72 1005.24 478.43 1008.98 488.15 1011.23 497.86 1011.9 507.57 1010.96 517.28 1008.44 526.99 1004.46 536.71 999.2 546.42 992.9 556.13 985.84 565.84 973.77 563.54 961.72 560.82 949.73 558.11 937.85 555.86 926.13 554.5 914.58 554.4 903.26 555.87 892.18 559.11 881.38 564.25 870.88 571.27 860.69 580.08 850.84 590.45 841.32 602.06 832.15 614.52 823.33 627.39 814.86 640.18 806.72 652.43 798.9 663.67 791.4 673.52 784.19 681.67 770.66 691.05 757.78 694.5 745.71 690.06 733.92 683.11 722.29 676.82 710.57 673.83 700.01 666.02 689.58 660.31 679.29 656.73 669.16 655.19 659.21 655.48 649.46 657.29 639.92 660.2 630.59 663.76 621.48 667.47 612.59 670.83 595.57 673.84 579.17 672.17 571.3 668.04 563.61 661.92 556.07 653.91 548.66 644.22 541.38 633.15 534.19 621.09 527.07 608.47 520.01 595.78 512.99 583.46 505.97 571.97 498.95 561.68 491.91 552.91 477.63 541.61 463.13 535.76 452.76 531.61 451.21 518.15 452.4 508.77 453.29 499.4 453.86 490.02 454.07 480.65 453.92 471.27 453.41 461.9 452.57 452.53 451.43 443.15 450.05 433.78 448.48 424.4 446.8 415.03 445.09 405.65 443.41 396.28 441.86 386.9 440.48 377.53 439.36 368.16 438.53 358.78 438.04 349.41 437.9 340.03 438.13 330.66 438.71 321.28 439.62 311.91 440.82 302.53 442.25 293.16 443.84 283.78 445.53 274.41 447.25 265.03 448.9 255.66 450.43 246.29 451.75 236.91 460.94 228.6 470.12 221.15 479.25 214.7 488.34 209.34 497.35 205.08 506.27 201.87 523.7 198.35 540.73 196.49 556.96 195 572.66 192.3 587.47 185.84 601.75 176.57 608.61 170.31 615.31 163.26 621.89 155.56 628.35 147.4 634.72 138.99 641.01 130.55 647.26 122.3 653.48 114.43 659.71 107.12 665.97 100.51 685.32 86.08 691.88 82.07" stroke-dasharray="1 5" transform="rotate(67.33333333333333, 711, 400)" opacity="0.37"></path><path d="M702.98 111.66Q721.79 124.23 741.04 138.73 760.58 154.07 780.23 168.99 799.8 182.23 819.11 192.84 837.94 200.31 856.12 204.74 873.48 206.83 889.87 207.75 905.18 208.95 919.34 211.88 932.33 217.69 944.15 227.03 954.89 239.88 964.64 255.53 951.97 272.53 938.94 289.52 927.44 306.51 919.12 323.5 915.19 340.49 916.22 357.49 922.06 374.48 931.87 391.47 944.22 408.46 957.33 425.45 969.31 442.45 978.43 459.44 983.37 476.43 983.41 493.42 978.55 510.41 969.49 527.4 948.54 524.72 927.36 525.92 906.19 532.5 885.26 544.98 864.8 562.73 844.98 584.11 825.98 606.74 807.89 627.97 790.81 645.35 774.75 657.13 759.71 662.59 745.63 662.21 732.44 657.6 720 651.2 708.19 645.85 696.83 644.24 679.59 631.82 663.14 626.04 647.49 626.23 632.6 630.63 618.44 636.73 604.9 641.72 591.89 643.09 579.29 639.02 566.96 628.78 554.76 612.78 542.57 592.53 530.26 570.3 517.72 548.69 504.87 530.12 491.64 516.4 477.97 508.39 480.46 491.8 481.8 475.22 481.78 458.64 480.43 442.05 477.93 425.47 474.64 408.88 471.04 392.3 467.64 375.71 464.95 359.13 463.35 342.54 463.07 325.96 464.14 309.37 466.43 292.79 469.59 276.2 473.16 259.61 476.64 243.03 493.56 234.56 510.5 229.65 527.33 227.5 543.95 226.8 560.24 226.04 576.09 223.74 591.42 218.77 606.15 210.56 620.24 199.15 633.66 185.17 646.42 169.74 658.58 154.17 670.2 139.79 681.38 127.61 697.62 114.94 702.98 111.66" stroke-dasharray="6 2" transform="rotate(71.07407407407408, 711, 400)" opacity="0.33"></path><path d="M717.65 141.25Q734.67 152.6 751.6 165.65 768.31 179.64 784.68 193.62 800.58 206.62 815.9 217.79 830.54 226.52 844.43 232.57 857.51 236.09 869.74 237.64 881.11 238.1 891.64 238.52 901.39 240.02 910.42 243.57 918.84 249.85 926.77 259.16 915.58 273.94 905.24 288.72 896.93 303.5 891.6 318.28 889.87 333.06 891.93 347.84 897.54 362.63 906.07 377.41 916.54 392.19 927.75 406.97 938.41 421.75 947.31 436.53 953.42 451.31 956.05 466.09 954.9 480.88 950.09 495.66 932.73 500.2 914.88 509.21 896.68 522.56 878.31 539.46 859.93 558.6 841.69 578.25 823.74 596.62 806.2 612.05 789.19 623.31 772.8 629.78 757.09 631.55 742.11 629.42 727.87 624.82 714.36 619.55 701.55 615.57 689.4 614.65 676.44 603.42 664.11 597.26 652.33 595.88 641.02 598.25 630.09 602.83 619.44 607.74 608.96 611.11 598.55 611.33 588.11 607.28 577.55 598.51 566.78 585.26 555.73 568.45 544.34 549.5 532.59 530.15 520.43 512.14 507.87 496.99 509.45 482.18 509.83 467.38 508.97 452.57 506.96 437.76 504.04 422.95 500.54 408.15 496.87 393.34 493.43 378.53 490.63 363.73 488.79 348.92 488.12 334.11 488.69 319.3 490.43 304.5 493.16 289.69 496.55 274.89 500.22 260.08 515.48 257.89 530.87 257.34 546.31 257.32 561.72 256.68 577.02 254.4 592.12 249.73 606.92 242.3 621.35 232.16 635.32 219.76 648.79 205.88 661.7 191.49 674.03 177.61 685.76 165.15 696.92 154.78 712.59 144.03 717.65 141.25" stroke-dasharray="4 6" transform="rotate(74.81481481481481, 711, 400)" opacity="0.30"></path><path d="M729.35 170.84Q743.09 180.9 756.46 192.42 769.38 204.88 781.8 217.62 793.69 229.93 804.99 241.16 815.71 250.73 825.82 258.26 835.35 263.6 844.3 266.85 860.5 268.46 875.5 268.75 881.57 278.02 873.28 298.91 867.95 311.82 865.14 324.73 865.08 337.65 867.78 350.56 873 363.47 880.28 376.38 888.99 389.3 898.36 402.21 907.57 415.12 915.8 428.04 922.34 440.95 926.6 453.86 928.22 466.78 927.06 479.69 913.3 490.96 898.99 504.97 884.22 520.9 869.06 537.72 853.62 554.26 838 569.38 822.31 582.06 806.63 591.57 791.07 597.53 775.72 599.97 760.65 599.32 745.93 596.4 731.62 592.28 717.78 588.21 704.42 585.43 691.57 585.06 682.21 575.08 673.12 568.86 664.23 566.28 655.45 566.82 646.73 569.61 637.96 573.52 629.1 577.31 620.08 579.8 610.83 579.95 601.32 577.01 591.51 570.61 581.36 560.77 570.86 547.9 560.02 532.77 548.82 516.37 537.29 499.84 537.74 486.58 537.12 473.32 535.47 460.05 532.94 446.79 529.76 433.53 526.21 420.27 522.59 407.01 519.22 393.74 516.41 380.48 514.39 367.22 513.35 353.96 513.37 340.7 514.46 327.44 516.52 314.18 519.36 300.92 522.74 287.66 536.09 288.04 549.64 288.04 563.35 286.91 577.17 284.03 591.03 279.02 604.89 271.73 618.67 262.29 632.31 251.07 645.74 238.63 658.91 225.66 671.73 212.89 684.18 201.02 696.19 190.6 707.74 182.03 724.08 173.15 729.35 170.84" stroke-dasharray="5 2" transform="rotate(78.55555555555556, 711, 400)" opacity="0.26"></path><path d="M732.89 200.42Q742.89 209.15 752.5 219.06 761.72 229.83 770.54 241.05 778.95 252.24 786.99 262.94 794.65 272.7 801.98 281.17 815.65 292.44 828.67 298.79 844.48 304.63 843.29 321.28 840.52 332.57 839.65 343.85 840.75 355.14 843.73 366.42 848.42 377.7 854.5 388.99 861.58 400.28 869.2 411.56 876.88 422.85 884.11 434.13 890.43 445.42 895.43 456.7 898.78 467.99 900.27 479.27 889.83 492.87 878.91 506.98 867.54 520.89 855.78 533.92 843.65 545.4 831.22 554.85 818.54 561.89 805.65 566.39 792.63 568.42 779.54 568.26 766.42 566.38 753.33 563.42 740.34 560.09 727.49 557.17 714.82 555.42 702.38 555.47 688 542.11 673.38 536.47 657.94 540.21 641.81 545.91 633.28 548.07 624.47 548.76 615.36 547.45 605.95 543.81 596.26 537.68 586.3 529.14 576.07 518.46 565.61 506.09 564.94 494.4 563.43 482.71 561.18 471.02 558.34 459.33 555.08 447.63 551.63 435.94 548.2 424.25 545.01 412.56 542.28 400.87 540.17 389.18 538.83 377.49 538.33 365.8 538.72 354.11 539.97 342.42 542 330.73 544.67 319.04 555.91 318.05 567.37 315.66 579.03 311.6 590.86 305.78 602.84 298.23 614.93 289.14 627.1 278.83 639.31 267.71 651.51 256.24 663.65 244.93 675.7 234.24 687.6 224.56 699.31 216.22 710.79 209.41 727.45 202.29 732.89 200.42" stroke-dasharray="4 0" transform="rotate(82.29629629629629, 711, 400)" opacity="0.23"></path><path d="M726.69 230.01Q733.52 237.35 740.12 245.6 746.51 254.57 752.69 264.02 758.69 273.68 764.53 283.26 770.23 292.48 775.83 301.05 786.82 314.78 797.78 324.99 813.25 334.72 815.37 349.89 814.55 359.57 815.03 369.24 816.79 378.92 819.76 388.59 823.79 398.27 828.71 407.94 834.29 417.62 840.29 427.3 846.43 436.97 852.44 446.65 858.04 456.33 863 466 867.07 475.68 870.09 485.36 862.46 496.34 854.49 506.51 846.2 515.53 837.58 523.14 828.66 529.14 819.46 533.45 809.98 536.07 800.26 537.12 790.32 536.78 780.19 535.35 769.89 533.2 759.46 530.71 748.93 528.32 738.32 526.46 727.68 525.53 717.03 525.89 704.28 513.94 690.96 507.27 676.56 507.99 661.47 511.42 645.25 515.39 628.39 517.29 619.61 516.2 610.66 513.58 601.55 509.31 592.3 503.39 590.73 493.48 588.62 483.57 586.04 473.66 583.13 463.75 580.01 453.84 576.82 443.93 573.7 434.03 570.8 424.12 568.25 414.21 566.15 404.3 564.61 394.4 563.7 384.49 563.45 374.58 563.87 364.67 564.96 354.76 566.65 344.86 575.67 340.66 584.88 335.17 594.28 328.44 603.85 320.61 613.59 311.88 623.5 302.49 633.54 292.74 643.71 282.9 653.98 273.29 664.33 264.19 674.74 255.83 685.18 248.43 695.62 242.1 706.04 236.94 721.55 231.47 726.69 230.01" stroke-dasharray="3 0" transform="rotate(86.03703703703704, 711, 400)" opacity="0.19"></path><path d="M713.5 259.6Q722.98 272.08 732.26 286.69 741.46 302.45 750.71 318.14 760.15 332.53 769.9 344.56 780.1 353.5 790.87 359.06 789.43 374.87 791.15 390.68 795.82 406.49 802.92 422.31 811.62 438.12 820.95 453.93 829.82 469.74 837.22 485.55 826.27 496.33 814.53 503.01 802.01 505.64 788.72 504.9 774.7 502.01 760.02 498.51 744.75 496.09 728.99 496.3 716.99 485.58 704.34 479.27 691.05 477.06 677.16 478.07 662.74 480.95 647.86 484.09 632.59 485.88 617.04 484.94 612.63 469.14 607.34 453.34 601.78 437.54 596.59 421.74 592.36 405.95 589.57 390.15 588.55 374.35 589.41 358.55 603.16 345 617.46 329.53 632.31 313.37 647.69 297.8 663.56 283.98 679.88 272.78 696.56 264.65 713.5 259.6 713.5 259.6 713.5 259.6" stroke-dasharray="1 2" transform="rotate(89.77777777777777, 711, 400)" opacity="0.16"></path><path d="M699.2 289.19Q706.54 298.51 714.01 309.23 721.66 320.94 729.55 333.15 737.72 345.32 746.21 356.89 755.07 367.34 764.32 376.25 765.27 388.13 767.84 400.01 771.88 411.9 777.13 423.78 783.23 435.66 789.81 447.55 787.65 469.95 770.93 471.31 762.03 468.98 752.73 467.01 743.03 466.05 732.95 466.71 722.13 458.38 711 452.42 699.58 448.82 687.93 447.35 676.07 447.63 664.07 449.12 651.95 451.19 639.78 453.17 635.53 441.58 631.02 429.99 626.54 418.4 622.38 406.81 618.81 395.22 616.06 383.63 614.3 372.04 613.66 360.45 623.19 347.99 633.03 335.69 643.2 324.09 653.72 313.68 664.58 304.83 675.78 297.78 693.27 290.89 699.2 289.19" stroke-dasharray="4 1" transform="rotate(93.51851851851852, 711, 400)" opacity="0.12"></path><path d="M690.15 318.78Q701.82 331.82 714.11 347.22 727.07 363.86 740.76 380.4 744.96 395.96 751.34 411.52 758.68 433.85 748.38 437.99 738.05 436.35 727.14 437.12 710.7 426.67 694.08 420.27 677.38 417.65 660.74 417.98 654.24 402.96 648.17 387.94 643.22 372.92 639.97 357.89 651.66 343.39 663.88 331.78 683.42 321.17 690.15 318.78" stroke-dasharray="1 3" transform="rotate(97.25925925925925, 711, 400)" opacity="0.09"></path></g></svg>